<?xml version="1.0" standalone="no"?>
  <!DOCTYPE svg PUBLIC "-//W3C//DTD SVG 1.1//EN" "http://www.w3.org/Graphics/SVG/1.1/DTD/svg11.dtd" >
  <svg>
  <metadata>
  Created by font-carrier
  </metadata>
  <defs>
  <font id="Pobeda-Bold" horiz-adv-x="814" vert-adv-y="814" >
    <font-face
      
      font-family="Pobeda"
      
      font-weight="400"
      
      font-stretch="normal"
      
      units-per-em="1000"
      
      ascent="750"
      
      descent="-250"
      
    />
      <missing-glyph />

      

      
      <glyph glyph-name="uni0418" unicode="&#x0418;" d="M191 0L191 441L77 326L77 0L0 0L0 694L77 694L77 419L191 538L191 694L268 694L268 0L191 0Z"  horiz-adv-x="408" vert-adv-y="1000"  />

      
      <glyph glyph-name="uni0413" unicode="&#x0413;" d="M232 694L232 617L77 617L77 0L0 0L0 694L232 694Z"  horiz-adv-x="345" vert-adv-y="1000"  />

      
      <glyph glyph-name="uni041F" unicode="&#x041F;" d="M264 694L264 0L187 0L187 617L77 617L77 0L0 0L0 694L264 694Z"  horiz-adv-x="404" vert-adv-y="1000"  />

      
      <glyph glyph-name="uni0422" unicode="&#x0422;" d="M321 694L321 617L194 617L194 0L117 0L117 617L-10 617L-10 694L321 694Z"  horiz-adv-x="429" vert-adv-y="1000"  />

      
      <glyph glyph-name="uni0428" unicode="&#x0428;" d="M366 77L366 694L443 694L443 0L0 0L0 694L77 694L77 77L183 77L183 694L260 694L260 77L366 77L366 77Z"  horiz-adv-x="583" vert-adv-y="1000"  />

      
      <glyph glyph-name="uni0420" unicode="&#x0420;" d="M256 327Q256 298 247.50 277.50Q239 257 224 244.50Q209 232 189.50 226Q170 220 148 220L77 220L77 0L0 0L0 694L148 694Q177 694 197.50 685.50Q218 677 231 662.50Q244 648 250 628.50Q256 609 256 587L256 327M178 587Q178 599 171.50 608Q165 617 148 617L77 617L77 297L148 297Q161 297 169.50 303.50Q178 310 178 327L178 587Z"  horiz-adv-x="383" vert-adv-y="1000"  />

      
      <glyph glyph-name="uni041C" unicode="&#x041C;" d="M468 694L468 0L391 0L391 300L401 625L373 625L298 168L170 168L95 625L67 625L77 300L77 0L0 0L0 694L157 694L227 236L241 236L311 694L468 694Z"  horiz-adv-x="608" vert-adv-y="1000"  />

      
      <glyph glyph-name="uni041E" unicode="&#x041E;" d="M166 700Q195 700 215.50 691.50Q236 683 248.50 668.50Q261 654 267 634.50Q273 615 273 593L273 101Q273 79 267 59.50Q261 40 248.50 25.50Q236 11 215.50 2.50Q195-6 166-6L107-6Q78-6 57.50 2.50Q37 11 24.50 25.50Q12 40 6 59.50Q0 79 0 101L0 593Q0 615 6 634.50Q12 654 24.50 668.50Q37 683 57.50 691.50Q78 700 107 700L166 700M166 71Q182 71 189 80Q196 89 196 101L196 593Q196 605 189 614Q182 623 166 623L107 623Q90 623 83.50 614Q77 605 77 593L77 101Q77 89 83.50 80Q90 71 107 71L166 71Z"  horiz-adv-x="405" vert-adv-y="1000"  />

      
      <glyph glyph-name="uni0429" unicode="&#x0429;" d="M507 77L507-92L455-92L440 0L0 0L0 694L77 694L77 77L183 77L183 694L260 694L260 77L366 77L366 694L443 694L443 77L507 77Z"  horiz-adv-x="605" vert-adv-y="1000"  />

      
      <glyph glyph-name="uni0427" unicode="&#x0427;" d="M263 694L263 0L185 0L185 220L107 220Q85 220 65.50 226Q46 232 31.50 244.50Q17 257 8.50 277.50Q0 298 0 327L0 694L77 694L77 327Q77 310 86 303.50Q95 297 107 297L185 297L185 694L263 694Z"  horiz-adv-x="403" vert-adv-y="1000"  />

      
      <glyph glyph-name="uni0426" unicode="&#x0426;" d="M326 77L326-92L274-92L258 0L0 0L0 694L77 694L77 77L185 77L185 694L262 694L262 77L326 77Z"  horiz-adv-x="424" vert-adv-y="1000"  />

      
      <glyph glyph-name="uni042C" unicode="&#x042C;" d="M257 107Q257 78 248.50 57.50Q240 37 225.50 24.50Q211 12 191.50 6Q172 0 150 0L0 0L0 694L77 694L77 474L150 474Q179 474 199.50 465.50Q220 457 232.50 442.50Q245 428 251 408.50Q257 389 257 367L257 107M180 367Q180 380 173.50 388.50Q167 397 150 397L77 397L77 77L150 77Q163 77 171.50 83.50Q180 90 180 107L180 367Z"  horiz-adv-x="385" vert-adv-y="1000"  />

      
      <glyph glyph-name="uni042A" unicode="&#x042A;" d="M309 107Q309 78 300.50 57.50Q292 37 277.50 24.50Q263 12 243.50 6Q224 0 202 0L52 0L52 617L-20 617L-20 694L129 694L129 474L202 474Q231 474 251.50 465.50Q272 457 284.50 442.50Q297 428 303 408.50Q309 389 309 367L309 107M232 367Q232 380 225.50 388.50Q219 397 202 397L129 397L129 77L202 77Q215 77 223.50 83.50Q232 90 232 107L232 367Z"  horiz-adv-x="437" vert-adv-y="1000"  />

      
      <glyph glyph-name="uni042B" unicode="&#x042B;" d="M150 474Q179 474 199.50 465.50Q220 457 232.50 442.50Q245 428 251 408.50Q257 389 257 367L257 107Q257 78 248.50 57.50Q240 37 225.50 24.50Q211 12 191.50 6Q172 0 150 0L0 0L0 694L77 694L77 474L150 474M180 367Q180 380 173.50 388.50Q167 397 150 397L77 397L77 77L150 77Q163 77 171.50 83.50Q180 90 180 107L180 367M426 694L426 0L349 0L349 694L426 694Z"  horiz-adv-x="566" vert-adv-y="1000"  />

      
      <glyph glyph-name="uni0411" unicode="&#x0411;" d="M151 474Q180 474 200.50 465.50Q221 457 233.50 442.50Q246 428 252 408.50Q258 389 258 367L258 107Q258 78 249.50 57.50Q241 37 226.50 24.50Q212 12 192.50 6Q173 0 151 0L0 0L0 694L238 694L238 617L77 617L77 474L151 474M181 367Q181 379 174.50 388Q168 397 151 397L77 397L77 77L151 77Q164 77 172.50 83.50Q181 90 181 107L181 367Z"  horiz-adv-x="384" vert-adv-y="1000"  />

      
      <glyph glyph-name="uni041A" unicode="&#x041A;" d="M0 694L77 694L77 467L143 467L219 694L301 694L214 434L307 0L228 0L142 402L77 402L77 0L0 0L0 694Z"  horiz-adv-x="414" vert-adv-y="1000"  />

      
      <glyph glyph-name="uni041B" unicode="&#x041B;" d="M287 694L287 0L210 0L210 617L122 617L99 96Q97 48 78.50 24Q60 0 12 0L-30 0L-30 77L2 77Q14 77 17.50 80.50Q21 84 22 96L48 694L287 694Z"  horiz-adv-x="427" vert-adv-y="1000"  />

      
      <glyph glyph-name="uni042F" unicode="&#x042F;" d="M266 694L266 0L189 0L189 332L145 332L69 0L-10 0L67 337Q38 346 19 370Q0 394 0 439L0 587Q0 609 6 628.50Q12 648 24.50 662.50Q37 677 57.50 685.50Q78 694 107 694L266 694M189 617L107 617Q90 617 83.50 608Q77 599 77 587L77 439Q77 423 86 416Q95 409 107 409L189 409L189 617Z"  horiz-adv-x="406" vert-adv-y="1000"  />

      
      <glyph glyph-name="uni0414" unicode="&#x0414;" d="M369 77L369-92L316-92L301 0L62 0L55-92L-7-92L-7 77L38 77Q59 91 60 123L83 694L316 694L316 77L369 77M239 77L239 617L157 617L136 120Q134 94 120 77L239 77Z"  horiz-adv-x="467" vert-adv-y="1000"  />

      
      <glyph glyph-name="uni0416" unicode="&#x0416;" d="M87 434L0 694L81 694L157 467L216 467L216 694L293 694L293 467L351 467L427 694L509 694L422 434L515 0L436 0L350 402L293 402L293 0L216 0L216 402L159 402L73 0L-6 0L87 434Z"  horiz-adv-x="622" vert-adv-y="1000"  />

      
      <glyph glyph-name="uni0425" unicode="&#x0425;" d="M186 434L273 351L273 0L196 0L196 319L136 383L77 321L77 0L0 0L0 353L85 434L0 515L0 694L77 694L77 547L136 485L196 549L196 694L273 694L273 515L186 434Z"  horiz-adv-x="413" vert-adv-y="1000"  />

      
      <glyph glyph-name="uni0424" unicode="&#x0424;" d="M309 694Q338 694 358.50 685.50Q379 677 392 662.50Q405 648 411 628.50Q417 609 417 587L417 239Q417 217 411 197.50Q405 178 392 163.50Q379 149 358.50 140.50Q338 132 309 132L247 132L247 0L170 0L170 132L107 132Q78 132 57.50 140.50Q37 149 24.50 163.50Q12 178 6 197.50Q0 217 0 239L0 587Q0 609 6 628.50Q12 648 24.50 662.50Q37 677 57.50 685.50Q78 694 107 694L170 694L170 778L247 778L247 694L309 694M170 617L107 617Q90 617 83.50 608Q77 599 77 587L77 239Q77 227 83.50 218Q90 209 107 209L170 209L170 617M309 209Q326 209 332.50 218Q339 227 339 239L339 587Q339 599 332.50 608Q326 617 309 617L247 617L247 209L309 209Z"  horiz-adv-x="548" vert-adv-y="1000"  />

      
      <glyph glyph-name="uni0423" unicode="&#x0423;" d="M231 89Q224 51 198.50 25.50Q173 0 125 0L71 0L71 77L125 77Q138 77 145 83Q152 89 154 97L177 221L108 221L0 694L79 694L163 298L190 298L262 694L340 694L231 89Z"  horiz-adv-x="446" vert-adv-y="1000"  />

      
      <glyph glyph-name="uni0401" unicode="&#x0401;" d="M77 617L77 474L192 474L192 396L77 396L77 77L231 77L231 0L0 0L0 694L231 694L231 617L77 617M177 767Q161 767 150 778Q139 789 139 805Q139 821 150 832.50Q161 844 177 844Q194 844 205 832.50Q216 821 216 805Q216 789 205 778Q194 767 177 767M54 767Q38 767 26.50 778Q15 789 15 805Q15 821 26.50 832.50Q38 844 54 844Q70 844 81.50 832.50Q93 821 93 805Q93 789 81.50 778Q70 767 54 767Z"  horiz-adv-x="357" vert-adv-y="1000"  />

      
      <glyph glyph-name="uni0419" unicode="&#x0419;" d="M207 767L61 767L61 818L207 818L207 767M191 0L191 441L77 326L77 0L0 0L0 694L77 694L77 419L191 538L191 694L268 694L268 0L191 0Z"  horiz-adv-x="408" vert-adv-y="1000"  />

      
      <glyph glyph-name="uni042E" unicode="&#x042E;" d="M315 700Q344 700 364.50 691.50Q385 683 397.50 668.50Q410 654 416 634.50Q422 615 422 593L422 101Q422 79 416 59.50Q410 40 397.50 25.50Q385 11 364.50 2.50Q344-6 315-6L267-6Q238-6 217.50 2.50Q197 11 184.50 25.50Q172 40 166 59.50Q160 79 160 101L160 396L77 396L77 0L0 0L0 694L77 694L77 473L160 473L160 593Q160 615 166 634.50Q172 654 184.50 668.50Q197 683 217.50 691.50Q238 700 267 700L315 700M345 593Q345 605 338 614Q331 623 315 623L267 623Q250 623 243.50 614Q237 605 237 593L237 101Q237 89 243.50 80Q250 71 267 71L315 71Q331 71 338 80Q345 89 345 101L345 593Z"  horiz-adv-x="554" vert-adv-y="1000"  />

      
      <glyph glyph-name="uni0412" unicode="&#x0412;" d="M149 694Q178 694 198.50 685.50Q219 677 231.50 662.50Q244 648 250 628.50Q256 609 256 587L256 538Q256 491 239.50 467.50Q223 444 196 435Q223 425 239.50 401.50Q256 378 256 331L256 107Q256 78 247.50 57.50Q239 37 224.50 24.50Q210 12 190.50 6Q171 0 149 0L0 0L0 694L149 694M179 341Q179 367 164.50 381.50Q150 396 129 396L77 396L77 77L149 77Q162 77 170.50 83.50Q179 90 179 107L179 341M179 587Q179 599 172.50 608Q166 617 149 617L77 617L77 473L129 473Q150 473 164.50 487.50Q179 502 179 528L179 587Z"  horiz-adv-x="387" vert-adv-y="1000"  />

      
      <glyph glyph-name="uni0421" unicode="&#x0421;" d="M195 297L272 297L272 101Q272 79 266 59.50Q260 40 247.50 25.50Q235 11 214.50 2.50Q194-6 165-6L107-6Q78-6 57.50 2.50Q37 11 24.50 25.50Q12 40 6 59.50Q0 79 0 101L0 593Q0 615 6 634.50Q12 654 24.50 668.50Q37 683 57.50 691.50Q78 700 107 700L165 700Q194 700 214.50 691.50Q235 683 247.50 668.50Q260 654 266 634.50Q272 615 272 593L272 459L195 459L195 593Q195 605 188 614Q181 623 165 623L107 623Q91 623 84 614Q77 605 77 593L77 101Q77 89 84 80Q91 71 107 71L165 71Q181 71 188 80Q195 89 195 101L195 297Z"  horiz-adv-x="404" vert-adv-y="1000"  />

      
      <glyph glyph-name="uni042D" unicode="&#x042D;" d="M155 702Q184 702 204.50 693.50Q225 685 237.50 670.50Q250 656 256 636.50Q262 617 262 595L262 101Q262 79 256 59.50Q250 40 237.50 25.50Q225 11 204.50 2.50Q184-6 155-6L107-6Q78-6 57.50 2.50Q37 11 24.50 25.50Q12 40 6 59.50Q0 79 0 101L0 255L77 255L77 101Q77 89 84 80Q91 71 107 71L154 71Q171 71 178 80Q185 89 185 101L185 396L98 396L98 474L185 474L185 595Q185 607 178 616Q171 625 155 625L107 625Q91 625 84 616Q77 607 77 595L77 550L0 550L0 595Q0 617 6 636.50Q12 656 24.50 670.50Q37 685 57.50 693.50Q78 702 107 702L155 702L155 702Z"  horiz-adv-x="393" vert-adv-y="1000"  />

      
      <glyph glyph-name="uni0417" unicode="&#x0417;" d="M157 700Q186 700 206.50 691.50Q227 683 239.50 668.50Q252 654 258 634.50Q264 615 264 593L264 538Q264 492 247.50 467.50Q231 443 203 433Q231 423 247.50 400.50Q264 378 264 332L264 101Q264 79 258 59.50Q252 40 239.50 25.50Q227 11 206.50 2.50Q186-6 157-6L107-6Q78-6 57.50 2.50Q37 11 24.50 25.50Q12 40 6 59.50Q0 79 0 101L0 275L77 275L77 101Q77 89 83.50 80Q90 71 107 71L157 71Q174 71 180.50 80Q187 89 187 101L187 341Q187 368 172.50 382Q158 396 137 396L77 396L77 474L137 474Q158 474 172.50 488Q187 502 187 529L187 593Q187 605 180.50 614Q174 623 157 623L107 623Q90 623 83.50 614Q77 605 77 593L77 551L0 551L0 593Q0 615 6 634.50Q12 654 24.50 668.50Q37 683 57.50 691.50Q78 700 107 700L157 700L157 700Z"  horiz-adv-x="395" vert-adv-y="1000"  />

      
      <glyph glyph-name="uni31" unicode="&#x31;" d="M174 694L174 0L97 0L97 617L0 617L0 694L174 694L174 694Z"  horiz-adv-x="314" vert-adv-y="1000"  />

      
      <glyph glyph-name="uni32" unicode="&#x32;" d="M190 298L267 298L267 0L0 0L0 310L190 547L190 593Q190 605 183 614Q176 623 160 623L107 623Q90 623 83.50 614Q77 605 77 593L77 533L0 533L0 593Q0 615 6 634.50Q12 654 24.50 668.50Q37 683 57.50 691.50Q78 700 107 700L160 700Q189 700 209.50 691.50Q230 683 242.50 668.50Q255 654 261 634.50Q267 615 267 593L267 520L77 283L77 77L190 77L190 298Z"  horiz-adv-x="399" vert-adv-y="1000"  />

      
      <glyph glyph-name="uni30" unicode="&#x30;" d="M159 700Q188 700 208.50 691.50Q229 683 241.50 668.50Q254 654 260 634.50Q266 615 266 593L266 101Q266 79 260 59.50Q254 40 241.50 25.50Q229 11 208.50 2.50Q188-6 159-6L107-6Q78-6 57.50 2.50Q37 11 24.50 25.50Q12 40 6 59.50Q0 79 0 101L0 593Q0 615 6 634.50Q12 654 24.50 668.50Q37 683 57.50 691.50Q78 700 107 700L159 700M159 71Q175 71 182 80Q189 89 189 101L189 593Q189 605 182 614Q175 623 159 623L107 623Q90 623 83.50 614Q77 605 77 593L77 101Q77 89 83.50 80Q90 71 107 71L159 71Z"  horiz-adv-x="398" vert-adv-y="1000"  />

      
      <glyph glyph-name="uni33" unicode="&#x33;" d="M185 472Q223 467 248.50 442.50Q274 418 274 366L274 107Q274 85 268 65.50Q262 46 249.50 31.50Q237 17 216.50 8.50Q196 0 167 0L107 0Q78 0 57.50 8.50Q37 17 24.50 31.50Q12 46 6 65.50Q0 85 0 107L0 297L77 297L77 107Q77 95 83.50 86Q90 77 107 77L167 77Q183 77 190 86Q197 95 197 107L197 366Q197 382 188 389Q179 396 167 396L100 396L100 473L197 604L197 617L0 617L0 694L274 694L274 578L185 472L185 472Z"  horiz-adv-x="406" vert-adv-y="1000"  />

      
      <glyph glyph-name="uni34" unicode="&#x34;" d="M271 694L271 297L321 297L321 220L271 220L271 0L194 0L194 220L0 220L0 297L82 694L271 694M194 297L194 617L145 617L79 297L194 297Z"  horiz-adv-x="431" vert-adv-y="1000"  />

      
      <glyph glyph-name="uni35" unicode="&#x35;" d="M77 617L77 473L156 473Q185 473 205.50 464.50Q226 456 238.50 441.50Q251 427 257 407.50Q263 388 263 366L263 107Q263 85 257 65.50Q251 46 238.50 31.50Q226 17 205.50 8.50Q185 0 156 0L107 0Q78 0 57.50 8.50Q37 17 24.50 31.50Q12 46 6 65.50Q0 85 0 107L0 298L77 298L77 107Q77 95 83.50 86Q90 77 107 77L156 77Q173 77 179.50 86Q186 95 186 107L186 366Q186 379 179.50 387.50Q173 396 156 396L0 396L0 694L253 694L253 617L77 617Z"  horiz-adv-x="394" vert-adv-y="1000"  />

      
      <glyph glyph-name="uni36" unicode="&#x36;" d="M181 561L181 593Q181 605 174.50 614Q168 623 151 623L107 623Q90 623 83.50 614Q77 605 77 593L77 473L158 473Q187 473 207.50 464.50Q228 456 240.50 441.50Q253 427 259 407.50Q265 388 265 366L265 101Q265 79 259 59.50Q253 40 240.50 25.50Q228 11 207.50 2.50Q187-6 158-6L107-6Q78-6 57.50 2.50Q37 11 24.50 25.50Q12 40 6 59.50Q0 79 0 101L0 593Q0 615 6 634.50Q12 654 24.50 668.50Q37 683 57.50 691.50Q78 700 107 700L151 700Q180 700 200.50 691.50Q221 683 233.50 668.50Q246 654 252 634.50Q258 615 258 593L258 561L181 561M77 396L77 101Q77 88 83.50 79.50Q90 71 107 71L158 71Q175 71 181.50 79.50Q188 88 188 101L188 366Q188 378 181.50 387Q175 396 158 396L77 396Z"  horiz-adv-x="397" vert-adv-y="1000"  />

      
      <glyph glyph-name="uni37" unicode="&#x37;" d="M43 0L172 617L0 617L0 694L251 694L251 617L121 0L43 0L43 0Z"  horiz-adv-x="365" vert-adv-y="1000"  />

      
      <glyph glyph-name="uni38" unicode="&#x38;" d="M271 101Q271 79 265 59.50Q259 40 246.50 25.50Q234 11 213.50 2.50Q193-6 164-6L107-6Q78-6 57.50 2.50Q37 11 24.50 25.50Q12 40 6 59.50Q0 79 0 101L0 330Q0 377 16.50 400.50Q33 424 61 433Q33 443 16.50 466.50Q0 490 0 537L0 592Q0 637 24.50 668.50Q49 700 107 700L164 700Q222 700 246.50 668.50Q271 637 271 592L271 537Q271 490 254.50 466.50Q238 443 210 433Q238 424 254.50 400.50Q271 377 271 330L271 101M194 340Q194 366 179.50 385.50Q165 405 144 405L127 405Q107 405 92 385.50Q77 366 77 340L77 101Q77 89 83.50 80Q90 71 107 71L164 71Q181 71 187.50 80Q194 89 194 101L194 340M194 592Q194 605 187.50 614Q181 623 164 623L107 623Q90 623 83.50 614Q77 605 77 592L77 527Q77 501 92 481.50Q107 462 127 462L144 462Q165 462 179.50 481.50Q194 501 194 527L194 592Z"  horiz-adv-x="403" vert-adv-y="1000"  />

      
      <glyph glyph-name="uni39" unicode="&#x39;" d="M77 133L77 101Q77 89 83.50 80Q90 71 107 71L158 71Q175 71 181.50 80Q188 89 188 101L188 221L107 221Q78 221 57.50 229.50Q37 238 24.50 252.50Q12 267 6 286.50Q0 306 0 328L0 593Q0 615 6 634.50Q12 654 24.50 668.50Q37 683 57.50 691.50Q78 700 107 700L158 700Q187 700 207.50 691.50Q228 683 240.50 668.50Q253 654 259 634.50Q265 615 265 593L265 101Q265 79 259 59.50Q253 40 240.50 25.50Q228 11 207.50 2.50Q187-6 158-6L107-6Q78-6 57.50 2.50Q37 11 24.50 25.50Q12 40 6 59.50Q0 79 0 101L0 133L77 133M188 298L188 593Q188 606 181.50 614.50Q175 623 158 623L107 623Q90 623 83.50 614.50Q77 606 77 593L77 328Q77 316 83.50 307Q90 298 107 298L188 298Z"  horiz-adv-x="397" vert-adv-y="1000"  />

      
      <glyph glyph-name="uni2d" unicode="&#x2d;" d="M172 403L-20 403L-20 469L172 469L172 403L172 403Z"  horiz-adv-x="292" vert-adv-y="1000"  />

      
      <glyph glyph-name="uni3d" unicode="&#x3d;" d="M-20 539L262 539L262 473L-20 473L-20 539M-20 333L-20 399L262 399L262 333L-20 333Z"  horiz-adv-x="382" vert-adv-y="1000"  />

      
      <glyph glyph-name="uni28" unicode="&#x28;" d="M166-72L117-72Q84-19 58 47Q36 104 18 180Q0 256 0 347Q0 438 18 514Q36 590 58 647Q84 713 117 766L166 766Q141 716 123 652Q106 597 93 520Q80 443 80 347Q80 250 93 173.50Q106 97 123 42Q141-22 166-72Z"  horiz-adv-x="296" vert-adv-y="1000"  />

      
      <glyph glyph-name="uni29" unicode="&#x29;" d="M71 347Q71 443 57.50 520Q44 597 28 652Q9 716-15 766L34 766Q66 713 92 647Q114 590 132.50 514Q151 438 151 347Q151 256 132.50 180Q114 104 92 47Q66-19 34-72L-15-72Q9-22 28 42Q44 97 57.50 173.50Q71 250 71 347Z"  horiz-adv-x="276" vert-adv-y="1000"  />

      
      <glyph glyph-name="uni2e" unicode="&#x2e;" d="M-8 0L-8 97L89 97L89 0L-8 0L-8 0Z"  horiz-adv-x="207" vert-adv-y="1000"  />

      
      <glyph glyph-name="uni3a" unicode="&#x3a;" d="M0 0L0 97L97 97L97 0L0 0M0 525L97 525L97 428L0 428L0 525Z"  horiz-adv-x="207" vert-adv-y="1000"  />

      
      <glyph glyph-name="uni2c" unicode="&#x2c;" d="M77 97L42-112L-8-112L-8 97L77 97Z"  horiz-adv-x="196" vert-adv-y="1000"  />

      
      <glyph glyph-name="uni3b" unicode="&#x3b;" d="M0 525L97 525L97 428L0 428L0 525M0-112L0 97L97 97L50-112L0-112Z"  horiz-adv-x="207" vert-adv-y="1000"  />

      
      <glyph glyph-name="uni27" unicode="&#x27;" d="M0 778L66 778L57 569L8 569L0 778Z"  horiz-adv-x="186" vert-adv-y="1000"  />

      
      <glyph glyph-name="uni2f" unicode="&#x2f;" d="M77-77L0-77L123 771L200 771L77-77L77-77Z"  horiz-adv-x="310" vert-adv-y="1000"  />

      
      <glyph glyph-name="uni5c" unicode="&#x5c;" d="M123-77L0 771L77 771L200-77L123-77L123-77Z"  horiz-adv-x="310" vert-adv-y="1000"  />

      
      <glyph glyph-name="uni2b" unicode="&#x2b;" d="M268 469L268 403L157 403L157 292L91 292L91 403L-20 403L-20 469L91 469L91 580L157 580L157 469L268 469L268 469Z"  horiz-adv-x="388" vert-adv-y="1000"  />

      
      <glyph glyph-name="uni0410" unicode="&#x0410;" d="M230 133L93 133L77 0L0 0L79 694L243 694L323 0L245 0L230 133M222 203L174 617L148 617L101 203L222 203Z"  horiz-adv-x="440" vert-adv-y="1000"  />

      
      <glyph glyph-name="uni041D" unicode="&#x041D;" d="M196 694L273 694L273 0L196 0L196 396L77 396L77 0L0 0L0 694L77 694L77 473L196 473L196 694Z"  horiz-adv-x="413" vert-adv-y="1000"  />

      
      <glyph glyph-name="uni0415" unicode="&#x0415;" d="M231 694L231 617L77 617L77 474L192 474L192 396L77 396L77 77L231 77L231 0L0 0L0 694L231 694Z"  horiz-adv-x="354" vert-adv-y="1000"  />

      
      <glyph glyph-name="uni3f" unicode="&#x3f;" d="M139 694Q168 694 188.50 685.50Q209 677 221.50 662.50Q234 648 240 628.50Q246 609 246 587L246 426Q246 386 226.50 356Q207 326 161 320L160 320Q147 318 141.50 309.50Q136 301 136 290L136 212L58 212L58 290Q58 331 78.50 360.50Q99 390 145 396L146 396Q158 398 163.50 406.50Q169 415 169 426L169 587Q169 599 162 608Q155 617 139 617L97 617Q81 617 74 608Q67 599 67 587L67 459L-10 459L-10 587Q-10 609-4 628.50Q2 648 14.50 662.50Q27 677 47.50 685.50Q68 694 97 694L139 694M48 97L145 97L145 0L48 0L48 97Z"  horiz-adv-x="366" vert-adv-y="1000"  />

      
      <glyph glyph-name="uni21" unicode="&#x21;" d="M-1 97L96 97L96 0L-1 0L-1 97M86 694L86 212L9 212L9 694L86 694Z"  horiz-adv-x="197" vert-adv-y="1000"  />

      
      <glyph glyph-name="uni2014" unicode="&#x2014;" d="M262 403L-20 403L-20 469L262 469L262 403L262 403Z"  horiz-adv-x="382" vert-adv-y="1000"  />

      
      <glyph glyph-name="uni2013" unicode="&#x2013;" d="M220 403L-20 403L-20 469L220 469L220 403L220 403Z"  horiz-adv-x="340" vert-adv-y="1000"  />

      
      <glyph glyph-name="uni0430" unicode="&#x0430;" d="M245 0L230 133L93 133L77 0L0 0L79 694L243 694L323 0L245 0M101 203L222 203L174 617L148 617L101 203Z"  horiz-adv-x="440" vert-adv-y="1000"  />

      
      <glyph glyph-name="uni0431" unicode="&#x0431;" d="M151 474Q180 474 200.50 465.50Q221 457 233.50 442.50Q246 428 252 408.50Q258 389 258 367L258 107Q258 78 249.50 57.50Q241 37 226.50 24.50Q212 12 192.50 6Q173 0 151 0L0 0L0 694L238 694L238 617L77 617L77 474L151 474M181 367Q181 379 174.50 388Q168 397 151 397L77 397L77 77L151 77Q164 77 172.50 83.50Q181 90 181 107L181 367Z"  horiz-adv-x="384" vert-adv-y="1000"  />

      
      <glyph glyph-name="uni0432" unicode="&#x0432;" d="M149 694Q178 694 198.50 685.50Q219 677 231.50 662.50Q244 648 250 628.50Q256 609 256 587L256 538Q256 491 239.50 467.50Q223 444 196 435Q223 425 239.50 401.50Q256 378 256 331L256 107Q256 78 247.50 57.50Q239 37 224.50 24.50Q210 12 190.50 6Q171 0 149 0L0 0L0 694L149 694M179 341Q179 367 164.50 381.50Q150 396 129 396L77 396L77 77L149 77Q162 77 170.50 83.50Q179 90 179 107L179 341M179 587Q179 599 172.50 608Q166 617 149 617L77 617L77 473L129 473Q150 473 164.50 487.50Q179 502 179 528L179 587Z"  horiz-adv-x="387" vert-adv-y="1000"  />

      
      <glyph glyph-name="uni0433" unicode="&#x0433;" d="M232 694L232 617L77 617L77 0L0 0L0 694L232 694Z"  horiz-adv-x="345" vert-adv-y="1000"  />

      
      <glyph glyph-name="uni0434" unicode="&#x0434;" d="M369 77L369-92L316-92L301 0L62 0L55-92L-7-92L-7 77L38 77Q59 91 60 123L83 694L316 694L316 77L369 77M239 77L239 617L157 617L136 120Q134 94 120 77L239 77Z"  horiz-adv-x="467" vert-adv-y="1000"  />

      
      <glyph glyph-name="uni0435" unicode="&#x0435;" d="M0 694L231 694L231 617L77 617L77 474L192 474L192 396L77 396L77 77L231 77L231 0L0 0L0 694L0 694Z"  horiz-adv-x="354" vert-adv-y="1000"  />

      
      <glyph glyph-name="uni0451" unicode="&#x0451;" d="M77 617L77 474L192 474L192 396L77 396L77 77L231 77L231 0L0 0L0 694L231 694L231 617L77 617M177 767Q161 767 150 778Q139 789 139 805Q139 821 150 832.50Q161 844 177 844Q194 844 205 832.50Q216 821 216 805Q216 789 205 778Q194 767 177 767M54 767Q38 767 26.50 778Q15 789 15 805Q15 821 26.50 832.50Q38 844 54 844Q70 844 81.50 832.50Q93 821 93 805Q93 789 81.50 778Q70 767 54 767Z"  horiz-adv-x="357" vert-adv-y="1000"  />

      
      <glyph glyph-name="uni0436" unicode="&#x0436;" d="M-6 0L87 434L0 694L81 694L157 467L216 467L216 694L293 694L293 467L351 467L427 694L509 694L422 434L515 0L436 0L350 402L293 402L293 0L216 0L216 402L159 402L73 0L-6 0L-6 0Z"  horiz-adv-x="622" vert-adv-y="1000"  />

      
      <glyph glyph-name="uni0437" unicode="&#x0437;" d="M157 700Q186 700 206.50 691.50Q227 683 239.50 668.50Q252 654 258 634.50Q264 615 264 593L264 538Q264 492 247.50 467.50Q231 443 203 433Q231 423 247.50 400.50Q264 378 264 332L264 101Q264 79 258 59.50Q252 40 239.50 25.50Q227 11 206.50 2.50Q186-6 157-6L107-6Q78-6 57.50 2.50Q37 11 24.50 25.50Q12 40 6 59.50Q0 79 0 101L0 275L77 275L77 101Q77 89 83.50 80Q90 71 107 71L157 71Q174 71 180.50 80Q187 89 187 101L187 341Q187 368 172.50 382Q158 396 137 396L77 396L77 474L137 474Q158 474 172.50 488Q187 502 187 529L187 593Q187 605 180.50 614Q174 623 157 623L107 623Q90 623 83.50 614Q77 605 77 593L77 551L0 551L0 593Q0 615 6 634.50Q12 654 24.50 668.50Q37 683 57.50 691.50Q78 700 107 700L157 700L157 700Z"  horiz-adv-x="395" vert-adv-y="1000"  />

      
      <glyph glyph-name="uni0438" unicode="&#x0438;" d="M191 0L191 441L77 326L77 0L0 0L0 694L77 694L77 419L191 538L191 694L268 694L268 0L191 0Z"  horiz-adv-x="408" vert-adv-y="1000"  />

      
      <glyph glyph-name="uni0439" unicode="&#x0439;" d="M207 818L207 767L61 767L61 818L207 818M191 0L191 441L77 326L77 0L0 0L0 694L77 694L77 419L191 538L191 694L268 694L268 0L191 0Z"  horiz-adv-x="408" vert-adv-y="1000"  />

      
      <glyph glyph-name="uni043A" unicode="&#x043A;" d="M0 694L77 694L77 467L143 467L219 694L301 694L214 434L307 0L228 0L142 402L77 402L77 0L0 0L0 694L0 694Z"  horiz-adv-x="414" vert-adv-y="1000"  />

      
      <glyph glyph-name="uni043B" unicode="&#x043B;" d="M287 694L287 0L210 0L210 617L122 617L99 96Q97 48 78.50 24Q60 0 12 0L-30 0L-30 77L2 77Q14 77 17.50 80.50Q21 84 22 96L48 694L287 694Z"  horiz-adv-x="427" vert-adv-y="1000"  />

      
      <glyph glyph-name="uni043C" unicode="&#x043C;" d="M311 694L468 694L468 0L391 0L391 300L401 625L373 625L298 168L170 168L95 625L67 625L77 300L77 0L0 0L0 694L157 694L227 236L241 236L311 694L311 694Z"  horiz-adv-x="608" vert-adv-y="1000"  />

      
      <glyph glyph-name="uni043D" unicode="&#x043D;" d="M196 473L196 694L273 694L273 0L196 0L196 396L77 396L77 0L0 0L0 694L77 694L77 473L196 473L196 473Z"  horiz-adv-x="413" vert-adv-y="1000"  />

      
      <glyph glyph-name="uni043E" unicode="&#x043E;" d="M166 700Q195 700 215.50 691.50Q236 683 248.50 668.50Q261 654 267 634.50Q273 615 273 593L273 101Q273 79 267 59.50Q261 40 248.50 25.50Q236 11 215.50 2.50Q195-6 166-6L107-6Q78-6 57.50 2.50Q37 11 24.50 25.50Q12 40 6 59.50Q0 79 0 101L0 593Q0 615 6 634.50Q12 654 24.50 668.50Q37 683 57.50 691.50Q78 700 107 700L166 700M166 71Q182 71 189 80Q196 89 196 101L196 593Q196 605 189 614Q182 623 166 623L107 623Q90 623 83.50 614Q77 605 77 593L77 101Q77 89 83.50 80Q90 71 107 71L166 71Z"  horiz-adv-x="405" vert-adv-y="1000"  />

      
      <glyph glyph-name="uni043F" unicode="&#x043F;" d="M264 694L264 0L187 0L187 617L77 617L77 0L0 0L0 694L264 694Z"  horiz-adv-x="404" vert-adv-y="1000"  />

      
      <glyph glyph-name="uni0440" unicode="&#x0440;" d="M256 327Q256 298 247.50 277.50Q239 257 224 244.50Q209 232 189.50 226Q170 220 148 220L77 220L77 0L0 0L0 694L148 694Q177 694 197.50 685.50Q218 677 231 662.50Q244 648 250 628.50Q256 609 256 587L256 327M178 587Q178 599 171.50 608Q165 617 148 617L77 617L77 297L148 297Q161 297 169.50 303.50Q178 310 178 327L178 587Z"  horiz-adv-x="383" vert-adv-y="1000"  />

      
      <glyph glyph-name="uni0441" unicode="&#x0441;" d="M195 297L272 297L272 101Q272 79 266 59.50Q260 40 247.50 25.50Q235 11 214.50 2.50Q194-6 165-6L107-6Q78-6 57.50 2.50Q37 11 24.50 25.50Q12 40 6 59.50Q0 79 0 101L0 593Q0 615 6 634.50Q12 654 24.50 668.50Q37 683 57.50 691.50Q78 700 107 700L165 700Q194 700 214.50 691.50Q235 683 247.50 668.50Q260 654 266 634.50Q272 615 272 593L272 459L195 459L195 593Q195 605 188 614Q181 623 165 623L107 623Q91 623 84 614Q77 605 77 593L77 101Q77 89 84 80Q91 71 107 71L165 71Q181 71 188 80Q195 89 195 101L195 297Z"  horiz-adv-x="404" vert-adv-y="1000"  />

      
      <glyph glyph-name="uni0442" unicode="&#x0442;" d="M-10 694L321 694L321 617L194 617L194 0L117 0L117 617L-10 617L-10 694L-10 694Z"  horiz-adv-x="429" vert-adv-y="1000"  />

      
      <glyph glyph-name="uni0443" unicode="&#x0443;" d="M231 89Q224 51 198.50 25.50Q173 0 125 0L71 0L71 77L125 77Q138 77 145 83Q152 89 154 97L177 221L108 221L0 694L79 694L163 298L190 298L262 694L340 694L231 89Z"  horiz-adv-x="446" vert-adv-y="1000"  />

      
      <glyph glyph-name="uni0444" unicode="&#x0444;" d="M309 694Q338 694 358.50 685.50Q379 677 392 662.50Q405 648 411 628.50Q417 609 417 587L417 239Q417 217 411 197.50Q405 178 392 163.50Q379 149 358.50 140.50Q338 132 309 132L247 132L247 0L170 0L170 132L107 132Q78 132 57.50 140.50Q37 149 24.50 163.50Q12 178 6 197.50Q0 217 0 239L0 587Q0 609 6 628.50Q12 648 24.50 662.50Q37 677 57.50 685.50Q78 694 107 694L170 694L170 778L247 778L247 694L309 694M170 617L107 617Q90 617 83.50 608Q77 599 77 587L77 239Q77 227 83.50 218Q90 209 107 209L170 209L170 617M309 209Q326 209 332.50 218Q339 227 339 239L339 587Q339 599 332.50 608Q326 617 309 617L247 617L247 209L309 209Z"  horiz-adv-x="548" vert-adv-y="1000"  />

      
      <glyph glyph-name="uni0445" unicode="&#x0445;" d="M273 515L186 434L273 351L273 0L196 0L196 319L136 383L77 321L77 0L0 0L0 353L85 434L0 515L0 694L77 694L77 547L136 485L196 549L196 694L273 694L273 515L273 515Z"  horiz-adv-x="413" vert-adv-y="1000"  />

      
      <glyph glyph-name="uni0446" unicode="&#x0446;" d="M262 77L326 77L326-92L274-92L258 0L0 0L0 694L77 694L77 77L185 77L185 694L262 694L262 77L262 77Z"  horiz-adv-x="424" vert-adv-y="1000"  />

      
      <glyph glyph-name="uni0447" unicode="&#x0447;" d="M263 694L263 0L185 0L185 220L107 220Q85 220 65.50 226Q46 232 31.50 244.50Q17 257 8.50 277.50Q0 298 0 327L0 694L77 694L77 327Q77 310 86 303.50Q95 297 107 297L185 297L185 694L263 694Z"  horiz-adv-x="403" vert-adv-y="1000"  />

      
      <glyph glyph-name="uni0448" unicode="&#x0448;" d="M366 77L366 694L443 694L443 0L0 0L0 694L77 694L77 77L183 77L183 694L260 694L260 77L366 77L366 77Z"  horiz-adv-x="583" vert-adv-y="1000"  />

      
      <glyph glyph-name="uni0449" unicode="&#x0449;" d="M443 77L507 77L507-92L455-92L440 0L0 0L0 694L77 694L77 77L183 77L183 694L260 694L260 77L366 77L366 694L443 694L443 77L443 77Z"  horiz-adv-x="605" vert-adv-y="1000"  />

      
      <glyph glyph-name="uni044A" unicode="&#x044A;" d="M309 107Q309 78 300.50 57.50Q292 37 277.50 24.50Q263 12 243.50 6Q224 0 202 0L52 0L52 617L-20 617L-20 694L129 694L129 474L202 474Q231 474 251.50 465.50Q272 457 284.50 442.50Q297 428 303 408.50Q309 389 309 367L309 107M232 367Q232 380 225.50 388.50Q219 397 202 397L129 397L129 77L202 77Q215 77 223.50 83.50Q232 90 232 107L232 367Z"  horiz-adv-x="437" vert-adv-y="1000"  />

      
      <glyph glyph-name="uni044B" unicode="&#x044B;" d="M150 474Q179 474 199.50 465.50Q220 457 232.50 442.50Q245 428 251 408.50Q257 389 257 367L257 107Q257 78 248.50 57.50Q240 37 225.50 24.50Q211 12 191.50 6Q172 0 150 0L0 0L0 694L77 694L77 474L150 474M180 367Q180 380 173.50 388.50Q167 397 150 397L77 397L77 77L150 77Q163 77 171.50 83.50Q180 90 180 107L180 367M426 694L426 0L349 0L349 694L426 694Z"  horiz-adv-x="566" vert-adv-y="1000"  />

      
      <glyph glyph-name="uni044C" unicode="&#x044C;" d="M257 107Q257 78 248.50 57.50Q240 37 225.50 24.50Q211 12 191.50 6Q172 0 150 0L0 0L0 694L77 694L77 474L150 474Q179 474 199.50 465.50Q220 457 232.50 442.50Q245 428 251 408.50Q257 389 257 367L257 107M180 367Q180 380 173.50 388.50Q167 397 150 397L77 397L77 77L150 77Q163 77 171.50 83.50Q180 90 180 107L180 367Z"  horiz-adv-x="385" vert-adv-y="1000"  />

      
      <glyph glyph-name="uni044D" unicode="&#x044D;" d="M155 702Q184 702 204.50 693.50Q225 685 237.50 670.50Q250 656 256 636.50Q262 617 262 595L262 101Q262 79 256 59.50Q250 40 237.50 25.50Q225 11 204.50 2.50Q184-6 155-6L107-6Q78-6 57.50 2.50Q37 11 24.50 25.50Q12 40 6 59.50Q0 79 0 101L0 255L77 255L77 101Q77 89 84 80Q91 71 107 71L154 71Q171 71 178 80Q185 89 185 101L185 396L98 396L98 474L185 474L185 595Q185 607 178 616Q171 625 155 625L107 625Q91 625 84 616Q77 607 77 595L77 550L0 550L0 595Q0 617 6 636.50Q12 656 24.50 670.50Q37 685 57.50 693.50Q78 702 107 702L155 702L155 702Z"  horiz-adv-x="393" vert-adv-y="1000"  />

      
      <glyph glyph-name="uni044E" unicode="&#x044E;" d="M315 700Q344 700 364.50 691.50Q385 683 397.50 668.50Q410 654 416 634.50Q422 615 422 593L422 101Q422 79 416 59.50Q410 40 397.50 25.50Q385 11 364.50 2.50Q344-6 315-6L267-6Q238-6 217.50 2.50Q197 11 184.50 25.50Q172 40 166 59.50Q160 79 160 101L160 396L77 396L77 0L0 0L0 694L77 694L77 473L160 473L160 593Q160 615 166 634.50Q172 654 184.50 668.50Q197 683 217.50 691.50Q238 700 267 700L315 700M345 593Q345 605 338 614Q331 623 315 623L267 623Q250 623 243.50 614Q237 605 237 593L237 101Q237 89 243.50 80Q250 71 267 71L315 71Q331 71 338 80Q345 89 345 101L345 593Z"  horiz-adv-x="554" vert-adv-y="1000"  />

      
      <glyph glyph-name="uni044F" unicode="&#x044F;" d="M266 694L266 0L189 0L189 332L145 332L69 0L-10 0L67 337Q38 346 19 370Q0 394 0 439L0 587Q0 609 6 628.50Q12 648 24.50 662.50Q37 677 57.50 685.50Q78 694 107 694L266 694M189 617L107 617Q90 617 83.50 608Q77 599 77 587L77 439Q77 423 86 416Q95 409 107 409L189 409L189 617Z"  horiz-adv-x="406" vert-adv-y="1000"  />

      
      <glyph glyph-name="uni41" unicode="&#x41;" d="M230 133L93 133L77 0L0 0L79 694L243 694L323 0L245 0L230 133M222 203L174 617L148 617L101 203L222 203Z"  horiz-adv-x="440" vert-adv-y="1000"  />

      
      <glyph glyph-name="uni61" unicode="&#x61;" d="M230 133L93 133L77 0L0 0L79 694L243 694L323 0L245 0L230 133M222 203L174 617L148 617L101 203L222 203Z"  horiz-adv-x="440" vert-adv-y="1000"  />

      
      <glyph glyph-name="uni42" unicode="&#x42;" d="M149 694Q178 694 198.50 685.50Q219 677 231.50 662.50Q244 648 250 628.50Q256 609 256 587L256 538Q256 491 239.50 467.50Q223 444 196 435Q223 425 239.50 401.50Q256 378 256 331L256 107Q256 78 247.50 57.50Q239 37 224.50 24.50Q210 12 190.50 6Q171 0 149 0L0 0L0 694L149 694M179 341Q179 367 164.50 381.50Q150 396 129 396L77 396L77 77L149 77Q162 77 170.50 83.50Q179 90 179 107L179 341M179 587Q179 599 172.50 608Q166 617 149 617L77 617L77 473L129 473Q150 473 164.50 487.50Q179 502 179 528L179 587Z"  horiz-adv-x="387" vert-adv-y="1000"  />

      
      <glyph glyph-name="uni62" unicode="&#x62;" d="M149 694Q178 694 198.50 685.50Q219 677 231.50 662.50Q244 648 250 628.50Q256 609 256 587L256 538Q256 491 239.50 467.50Q223 444 196 435Q223 425 239.50 401.50Q256 378 256 331L256 107Q256 78 247.50 57.50Q239 37 224.50 24.50Q210 12 190.50 6Q171 0 149 0L0 0L0 694L149 694M179 341Q179 367 164.50 381.50Q150 396 129 396L77 396L77 77L149 77Q162 77 170.50 83.50Q179 90 179 107L179 341M179 587Q179 599 172.50 608Q166 617 149 617L77 617L77 473L129 473Q150 473 164.50 487.50Q179 502 179 528L179 587Z"  horiz-adv-x="387" vert-adv-y="1000"  />

      
      <glyph glyph-name="uni43" unicode="&#x43;" d="M195 297L272 297L272 101Q272 79 266 59.50Q260 40 247.50 25.50Q235 11 214.50 2.50Q194-6 165-6L107-6Q78-6 57.50 2.50Q37 11 24.50 25.50Q12 40 6 59.50Q0 79 0 101L0 593Q0 615 6 634.50Q12 654 24.50 668.50Q37 683 57.50 691.50Q78 700 107 700L165 700Q194 700 214.50 691.50Q235 683 247.50 668.50Q260 654 266 634.50Q272 615 272 593L272 459L195 459L195 593Q195 605 188 614Q181 623 165 623L107 623Q91 623 84 614Q77 605 77 593L77 101Q77 89 84 80Q91 71 107 71L165 71Q181 71 188 80Q195 89 195 101L195 297Z"  horiz-adv-x="404" vert-adv-y="1000"  />

      
      <glyph glyph-name="uni63" unicode="&#x63;" d="M195 297L272 297L272 101Q272 79 266 59.50Q260 40 247.50 25.50Q235 11 214.50 2.50Q194-6 165-6L107-6Q78-6 57.50 2.50Q37 11 24.50 25.50Q12 40 6 59.50Q0 79 0 101L0 593Q0 615 6 634.50Q12 654 24.50 668.50Q37 683 57.50 691.50Q78 700 107 700L165 700Q194 700 214.50 691.50Q235 683 247.50 668.50Q260 654 266 634.50Q272 615 272 593L272 459L195 459L195 593Q195 605 188 614Q181 623 165 623L107 623Q91 623 84 614Q77 605 77 593L77 101Q77 89 84 80Q91 71 107 71L165 71Q181 71 188 80Q195 89 195 101L195 297Z"  horiz-adv-x="404" vert-adv-y="1000"  />

      
      <glyph glyph-name="uni44" unicode="&#x44;" d="M260 107Q260 85 254 65.50Q248 46 235.50 31.50Q223 17 202.50 8.50Q182 0 153 0L0 0L0 694L153 694Q182 694 202.50 685.50Q223 677 235.50 662.50Q248 648 254 628.50Q260 609 260 587L260 107M153 77Q169 77 176 86Q183 95 183 107L183 587Q183 599 176 608Q169 617 153 617L77 617L77 77L153 77Z"  horiz-adv-x="391" vert-adv-y="1000"  />

      
      <glyph glyph-name="uni64" unicode="&#x64;" d="M260 107Q260 85 254 65.50Q248 46 235.50 31.50Q223 17 202.50 8.50Q182 0 153 0L0 0L0 694L153 694Q182 694 202.50 685.50Q223 677 235.50 662.50Q248 648 254 628.50Q260 609 260 587L260 107M153 77Q169 77 176 86Q183 95 183 107L183 587Q183 599 176 608Q169 617 153 617L77 617L77 77L153 77Z"  horiz-adv-x="391" vert-adv-y="1000"  />

      
      <glyph glyph-name="uni45" unicode="&#x45;" d="M231 694L231 617L77 617L77 474L192 474L192 396L77 396L77 77L231 77L231 0L0 0L0 694L231 694Z"  horiz-adv-x="357" vert-adv-y="1000"  />

      
      <glyph glyph-name="uni65" unicode="&#x65;" d="M231 694L231 617L77 617L77 474L192 474L192 396L77 396L77 77L231 77L231 0L0 0L0 694L231 694Z"  horiz-adv-x="357" vert-adv-y="1000"  />

      
      <glyph glyph-name="uni46" unicode="&#x46;" d="M224 694L224 617L77 617L77 473L200 473L200 396L77 396L77 0L0 0L0 694L224 694Z"  horiz-adv-x="350" vert-adv-y="1000"  />

      
      <glyph glyph-name="uni66" unicode="&#x66;" d="M0 694L224 694L224 617L77 617L77 473L200 473L200 396L77 396L77 0L0 0L0 694L0 694Z"  horiz-adv-x="350" vert-adv-y="1000"  />

      
      <glyph glyph-name="uni47" unicode="&#x47;" d="M195 544L195 593Q195 605 188 614Q181 623 165 623L107 623Q91 623 84 614Q77 605 77 593L77 101Q77 89 84 80Q91 71 107 71L165 71Q181 71 188 80Q195 89 195 101L195 397L136 397L136 474L272 474L272 107Q272 85 266 64.50Q260 44 247.50 28.50Q235 13 214.50 3.50Q194-6 165-6L107-6Q78-6 57.50 2.50Q37 11 24.50 25.50Q12 40 6 59.50Q0 79 0 101L0 593Q0 615 6 634.50Q12 654 24.50 668.50Q37 683 57.50 691.50Q78 700 107 700L165 700Q194 700 214.50 691.50Q235 683 247.50 668.50Q260 654 266 634.50Q272 615 272 593L272 544L195 544Z"  horiz-adv-x="407" vert-adv-y="1000"  />

      
      <glyph glyph-name="uni67" unicode="&#x67;" d="M195 544L195 593Q195 605 188 614Q181 623 165 623L107 623Q91 623 84 614Q77 605 77 593L77 101Q77 89 84 80Q91 71 107 71L165 71Q181 71 188 80Q195 89 195 101L195 397L136 397L136 474L272 474L272 107Q272 85 266 64.50Q260 44 247.50 28.50Q235 13 214.50 3.50Q194-6 165-6L107-6Q78-6 57.50 2.50Q37 11 24.50 25.50Q12 40 6 59.50Q0 79 0 101L0 593Q0 615 6 634.50Q12 654 24.50 668.50Q37 683 57.50 691.50Q78 700 107 700L165 700Q194 700 214.50 691.50Q235 683 247.50 668.50Q260 654 266 634.50Q272 615 272 593L272 544L195 544Z"  horiz-adv-x="407" vert-adv-y="1000"  />

      
      <glyph glyph-name="uni48" unicode="&#x48;" d="M196 694L273 694L273 0L196 0L196 396L77 396L77 0L0 0L0 694L77 694L77 473L196 473L196 694Z"  horiz-adv-x="413" vert-adv-y="1000"  />

      
      <glyph glyph-name="uni68" unicode="&#x68;" d="M196 694L273 694L273 0L196 0L196 396L77 396L77 0L0 0L0 694L77 694L77 473L196 473L196 694Z"  horiz-adv-x="413" vert-adv-y="1000"  />

      
      <glyph glyph-name="uni49" unicode="&#x49;" d="M0 0L0 694L77 694L77 0L0 0L0 0Z"  horiz-adv-x="217" vert-adv-y="1000"  />

      
      <glyph glyph-name="uni69" unicode="&#x69;" d="M0 694L77 694L77 0L0 0L0 694Z"  horiz-adv-x="217" vert-adv-y="1000"  />

      
      <glyph glyph-name="uni4a" unicode="&#x4a;" d="M255 694L255 101Q255 79 249 59.50Q243 40 230.50 25.50Q218 11 197.50 2.50Q177-6 148-6L107-6Q78-6 57.50 2.50Q37 11 24.50 25.50Q12 40 6 59.50Q0 79 0 101L0 297L77 297L77 101Q77 89 84 80Q91 71 107 71L148 71Q164 71 171 80Q178 89 178 101L178 694L255 694Z"  horiz-adv-x="391" vert-adv-y="1000"  />

      
      <glyph glyph-name="uni6a" unicode="&#x6a;" d="M255 694L255 101Q255 79 249 59.50Q243 40 230.50 25.50Q218 11 197.50 2.50Q177-6 148-6L107-6Q78-6 57.50 2.50Q37 11 24.50 25.50Q12 40 6 59.50Q0 79 0 101L0 297L77 297L77 101Q77 89 84 80Q91 71 107 71L148 71Q164 71 171 80Q178 89 178 101L178 694L255 694Z"  horiz-adv-x="391" vert-adv-y="1000"  />

      
      <glyph glyph-name="uni4b" unicode="&#x4b;" d="M0 694L77 694L77 467L143 467L219 694L301 694L214 434L307 0L228 0L142 402L77 402L77 0L0 0L0 694Z"  horiz-adv-x="414" vert-adv-y="1000"  />

      
      <glyph glyph-name="uni6b" unicode="&#x6b;" d="M0 694L77 694L77 467L143 467L219 694L301 694L214 434L307 0L228 0L142 402L77 402L77 0L0 0L0 694Z"  horiz-adv-x="414" vert-adv-y="1000"  />

      
      <glyph glyph-name="uni4c" unicode="&#x4c;" d="M77 77L231 77L231 0L0 0L0 694L77 694L77 77Z"  horiz-adv-x="338" vert-adv-y="1000"  />

      
      <glyph glyph-name="uni6c" unicode="&#x6c;" d="M77 77L231 77L231 0L0 0L0 694L77 694L77 77Z"  horiz-adv-x="338" vert-adv-y="1000"  />

      
      <glyph glyph-name="uni4d" unicode="&#x4d;" d="M468 694L468 0L391 0L391 300L401 625L373 625L298 168L170 168L95 625L67 625L77 300L77 0L0 0L0 694L157 694L227 236L241 236L311 694L468 694Z"  horiz-adv-x="608" vert-adv-y="1000"  />

      
      <glyph glyph-name="uni6d" unicode="&#x6d;" d="M468 694L468 0L391 0L391 300L401 625L373 625L298 168L170 168L95 625L67 625L77 300L77 0L0 0L0 694L157 694L227 236L241 236L311 694L468 694Z"  horiz-adv-x="608" vert-adv-y="1000"  />

      
      <glyph glyph-name="uni6e" unicode="&#x6e;" d="M77 0L0 0L0 694L77 694L77 538L191 419L191 694L268 694L268 0L191 0L191 326L77 441L77 0L77 0Z"  horiz-adv-x="408" vert-adv-y="1000"  />

      
      <glyph glyph-name="uni4e" unicode="&#x4e;" d="M1 0L1 694L78 694L78 577L192 458L192 694L269 694L269 0L192 0L192 358L78 473L78 0L1 0Z"  horiz-adv-x="409" vert-adv-y="1000"  />

      
      <glyph glyph-name="uni4f" unicode="&#x4f;" d="M166 700Q195 700 215.50 691.50Q236 683 248.50 668.50Q261 654 267 634.50Q273 615 273 593L273 101Q273 79 267 59.50Q261 40 248.50 25.50Q236 11 215.50 2.50Q195-6 166-6L107-6Q78-6 57.50 2.50Q37 11 24.50 25.50Q12 40 6 59.50Q0 79 0 101L0 593Q0 615 6 634.50Q12 654 24.50 668.50Q37 683 57.50 691.50Q78 700 107 700L166 700M166 71Q182 71 189 80Q196 89 196 101L196 593Q196 605 189 614Q182 623 166 623L107 623Q90 623 83.50 614Q77 605 77 593L77 101Q77 89 83.50 80Q90 71 107 71L166 71Z"  horiz-adv-x="405" vert-adv-y="1000"  />

      
      <glyph glyph-name="uni6f" unicode="&#x6f;" d="M166 700Q195 700 215.50 691.50Q236 683 248.50 668.50Q261 654 267 634.50Q273 615 273 593L273 101Q273 79 267 59.50Q261 40 248.50 25.50Q236 11 215.50 2.50Q195-6 166-6L107-6Q78-6 57.50 2.50Q37 11 24.50 25.50Q12 40 6 59.50Q0 79 0 101L0 593Q0 615 6 634.50Q12 654 24.50 668.50Q37 683 57.50 691.50Q78 700 107 700L166 700M166 71Q182 71 189 80Q196 89 196 101L196 593Q196 605 189 614Q182 623 166 623L107 623Q90 623 83.50 614Q77 605 77 593L77 101Q77 89 83.50 80Q90 71 107 71L166 71Z"  horiz-adv-x="405" vert-adv-y="1000"  />

      
      <glyph glyph-name="uni70" unicode="&#x70;" d="M256 327Q256 298 247.50 277.50Q239 257 224 244.50Q209 232 189.50 226Q170 220 148 220L77 220L77 0L0 0L0 694L148 694Q177 694 197.50 685.50Q218 677 231 662.50Q244 648 250 628.50Q256 609 256 587L256 327M178 587Q178 599 171.50 608Q165 617 148 617L77 617L77 297L148 297Q161 297 169.50 303.50Q178 310 178 327L178 587Z"  horiz-adv-x="383" vert-adv-y="1000"  />

      
      <glyph glyph-name="uni50" unicode="&#x50;" d="M256 327Q256 298 247.50 277.50Q239 257 224 244.50Q209 232 189.50 226Q170 220 148 220L77 220L77 0L0 0L0 694L148 694Q177 694 197.50 685.50Q218 677 231 662.50Q244 648 250 628.50Q256 609 256 587L256 327M178 587Q178 599 171.50 608Q165 617 148 617L77 617L77 297L148 297Q161 297 169.50 303.50Q178 310 178 327L178 587Z"  horiz-adv-x="383" vert-adv-y="1000"  />

      
      <glyph glyph-name="uni71" unicode="&#x71;" d="M166 700Q195 700 215.50 691.50Q236 683 248.50 668.50Q261 654 267 634.50Q273 615 273 593L273 101Q273 79 267 59.50Q261 40 248.50 25.50Q236 11 215.50 2.50Q195-6 166-6L188-83L143-96L116-6L107-6Q78-6 57.50 2.50Q37 11 24.50 25.50Q12 40 6 59.50Q0 79 0 101L0 593Q0 615 6 634.50Q12 654 24.50 668.50Q37 683 57.50 691.50Q78 700 107 700L166 700M196 593Q196 605 189 614Q182 623 166 623L107 623Q90 623 83.50 614Q77 605 77 593L77 101Q77 89 83.50 80Q90 71 107 71L166 71Q182 71 189 80Q196 89 196 101L196 593Z"  horiz-adv-x="405" vert-adv-y="1000"  />

      
      <glyph glyph-name="uni51" unicode="&#x51;" d="M166 700Q195 700 215.50 691.50Q236 683 248.50 668.50Q261 654 267 634.50Q273 615 273 593L273 101Q273 79 267 59.50Q261 40 248.50 25.50Q236 11 215.50 2.50Q195-6 166-6L188-83L143-96L116-6L107-6Q78-6 57.50 2.50Q37 11 24.50 25.50Q12 40 6 59.50Q0 79 0 101L0 593Q0 615 6 634.50Q12 654 24.50 668.50Q37 683 57.50 691.50Q78 700 107 700L166 700M196 593Q196 605 189 614Q182 623 166 623L107 623Q90 623 83.50 614Q77 605 77 593L77 101Q77 89 83.50 80Q90 71 107 71L166 71Q182 71 189 80Q196 89 196 101L196 593Z"  horiz-adv-x="405" vert-adv-y="1000"  />

      
      <glyph glyph-name="uni52" unicode="&#x52;" d="M271 0L185 0L122 220L77 220L77 0L0 0L0 694L146 694Q175 694 195.50 685.50Q216 677 229 662.50Q242 648 248 628.50Q254 609 254 587L254 327Q254 285 237 261.50Q220 238 193 227L271 0M176 587Q176 599 169.50 608Q163 617 146 617L77 617L77 297L146 297Q159 297 167.50 303.50Q176 310 176 327L176 587Z"  horiz-adv-x="383" vert-adv-y="1000"  />

      
      <glyph glyph-name="uni72" unicode="&#x72;" d="M273 0L187 0L124 220L77 220L77 0L0 0L0 694L148 694Q177 694 197.50 685.50Q218 677 231 662.50Q244 648 250 628.50Q256 609 256 587L256 327Q256 285 239 261.50Q222 238 195 227L273 0M178 587Q178 599 171.50 608Q165 617 148 617L77 617L77 297L148 297Q161 297 169.50 303.50Q178 310 178 327L178 587Z"  horiz-adv-x="385" vert-adv-y="1000"  />

      
      <glyph glyph-name="uni73" unicode="&#x73;" d="M107 623Q90 623 83.50 614Q77 605 77 593L77 504Q77 491 83.50 482.50Q90 474 107 474L156 474Q185 474 205.50 465.50Q226 457 238.50 442.50Q251 428 257 408.50Q263 389 263 367L263 101Q263 79 257 59.50Q251 40 238.50 25.50Q226 11 205.50 2.50Q185-6 156-6L107-6Q78-6 57.50 2.50Q37 11 24.50 25.50Q12 40 6 59.50Q0 79 0 101L0 308L77 308L77 101Q77 89 83.50 80Q90 71 107 71L156 71Q172 71 179 80Q186 89 186 101L186 367Q186 379 179 388Q172 397 156 397L107 397Q78 397 57.50 405.50Q37 414 24.50 428.50Q12 443 6 462.50Q0 482 0 504L0 593Q0 615 6 634.50Q12 654 24.50 668.50Q37 683 57.50 691.50Q78 700 107 700L156 700Q185 700 205.50 691.50Q226 683 238.50 668.50Q251 654 257 634.50Q263 615 263 593L263 544L186 544L186 593Q186 605 179 614Q172 623 156 623L107 623L107 623Z"  horiz-adv-x="395" vert-adv-y="1000"  />

      
      <glyph glyph-name="uni53" unicode="&#x53;" d="M107 623Q90 623 83.50 614Q77 605 77 593L77 504Q77 491 83.50 482.50Q90 474 107 474L156 474Q185 474 205.50 465.50Q226 457 238.50 442.50Q251 428 257 408.50Q263 389 263 367L263 101Q263 79 257 59.50Q251 40 238.50 25.50Q226 11 205.50 2.50Q185-6 156-6L107-6Q78-6 57.50 2.50Q37 11 24.50 25.50Q12 40 6 59.50Q0 79 0 101L0 308L77 308L77 101Q77 89 83.50 80Q90 71 107 71L156 71Q172 71 179 80Q186 89 186 101L186 367Q186 379 179 388Q172 397 156 397L107 397Q78 397 57.50 405.50Q37 414 24.50 428.50Q12 443 6 462.50Q0 482 0 504L0 593Q0 615 6 634.50Q12 654 24.50 668.50Q37 683 57.50 691.50Q78 700 107 700L156 700Q185 700 205.50 691.50Q226 683 238.50 668.50Q251 654 257 634.50Q263 615 263 593L263 544L186 544L186 593Q186 605 179 614Q172 623 156 623L107 623L107 623Z"  horiz-adv-x="395" vert-adv-y="1000"  />

      
      <glyph glyph-name="uni54" unicode="&#x54;" d="M321 694L321 617L194 617L194 0L117 0L117 617L-10 617L-10 694L321 694Z"  horiz-adv-x="429" vert-adv-y="1000"  />

      
      <glyph glyph-name="uni74" unicode="&#x74;" d="M321 694L321 617L194 617L194 0L117 0L117 617L-10 617L-10 694L321 694Z"  horiz-adv-x="429" vert-adv-y="1000"  />

      
      <glyph glyph-name="uni55" unicode="&#x55;" d="M264 694L264 101Q264 79 258 59.50Q252 40 239.50 25.50Q227 11 206.50 2.50Q186-6 157-6L107-6Q78-6 57.50 2.50Q37 11 24.50 25.50Q12 40 6 59.50Q0 79 0 101L0 694L77 694L77 101Q77 89 84 80Q91 71 107 71L157 71Q173 71 180 80Q187 89 187 101L187 694L264 694Z"  horiz-adv-x="400" vert-adv-y="1000"  />

      
      <glyph glyph-name="uni75" unicode="&#x75;" d="M264 694L264 101Q264 79 258 59.50Q252 40 239.50 25.50Q227 11 206.50 2.50Q186-6 157-6L107-6Q78-6 57.50 2.50Q37 11 24.50 25.50Q12 40 6 59.50Q0 79 0 101L0 694L77 694L77 101Q77 89 84 80Q91 71 107 71L157 71Q173 71 180 80Q187 89 187 101L187 694L264 694Z"  horiz-adv-x="400" vert-adv-y="1000"  />

      
      <glyph glyph-name="uni56" unicode="&#x56;" d="M247 694L324 694L245 0L80 0L0 694L78 694L149 77L176 77L247 694Z"  horiz-adv-x="441" vert-adv-y="1000"  />

      
      <glyph glyph-name="uni76" unicode="&#x76;" d="M176 77L247 694L324 694L245 0L80 0L0 694L78 694L149 77L176 77L176 77Z"  horiz-adv-x="441" vert-adv-y="1000"  />

      
      <glyph glyph-name="uni57" unicode="&#x57;" d="M442 694L521 694L441 0L304 0L268 406L253 406L217 0L80 0L0 694L79 694L113 394L139 68L156 68L189 474L332 474L365 68L382 68L408 394L442 694L442 694Z"  horiz-adv-x="638" vert-adv-y="1000"  />

      
      <glyph glyph-name="uni77" unicode="&#x77;" d="M442 694L521 694L441 0L304 0L268 406L253 406L217 0L80 0L0 694L79 694L113 394L139 68L156 68L189 474L332 474L365 68L382 68L408 394L442 694L442 694Z"  horiz-adv-x="638" vert-adv-y="1000"  />

      
      <glyph glyph-name="uni58" unicode="&#x58;" d="M186 434L273 351L273 0L196 0L196 319L136 383L77 321L77 0L0 0L0 353L85 434L0 515L0 694L77 694L77 547L136 485L196 549L196 694L273 694L273 515L186 434Z"  horiz-adv-x="413" vert-adv-y="1000"  />

      
      <glyph glyph-name="uni78" unicode="&#x78;" d="M186 434L273 351L273 0L196 0L196 319L136 383L77 321L77 0L0 0L0 353L85 434L0 515L0 694L77 694L77 547L136 485L196 549L196 694L273 694L273 515L186 434Z"  horiz-adv-x="413" vert-adv-y="1000"  />

      
      <glyph glyph-name="uni59" unicode="&#x59;" d="M267 327Q267 285 245 254.50Q223 224 172 220L172 0L95 0L95 220Q44 224 22 254.50Q0 285 0 327L0 694L77 694L77 327Q77 315 84 306Q91 297 107 297L160 297Q176 297 183 306Q190 315 190 327L190 694L267 694L267 327Z"  horiz-adv-x="400" vert-adv-y="1000"  />

      
      <glyph glyph-name="uni79" unicode="&#x79;" d="M267 327Q267 285 245 254.50Q223 224 172 220L172 0L95 0L95 220Q44 224 22 254.50Q0 285 0 327L0 694L77 694L77 327Q77 315 84 306Q91 297 107 297L160 297Q176 297 183 306Q190 315 190 327L190 694L267 694L267 327Z"  horiz-adv-x="400" vert-adv-y="1000"  />

      
      <glyph glyph-name="uni5a" unicode="&#x5a;" d="M256 617L77 77L256 77L256 0L0 0L0 77L179 617L0 617L0 694L256 694L256 617Z"  horiz-adv-x="380" vert-adv-y="1000"  />

      
      <glyph glyph-name="uni7a" unicode="&#x7a;" d="M256 617L77 77L256 77L256 0L0 0L0 77L179 617L0 617L0 694L256 694L256 617Z"  horiz-adv-x="380" vert-adv-y="1000"  />

      
      <glyph glyph-name="uniab" unicode="&#xab;" d="M180 557L93 388L180 219L155 185L0 388L155 591L180 557M366 557L278 388L366 219L340 185L185 388L340 591L366 557Z"  horiz-adv-x="496" vert-adv-y="1000"  />

      
      <glyph glyph-name="unibb" unicode="&#xbb;" d="M273 388L186 557L211 591L366 388L211 185L186 219L273 388M88 388L0 557L26 591L181 388L26 185L0 219L88 388Z"  horiz-adv-x="476" vert-adv-y="1000"  />

      
      <glyph glyph-name="uni24" unicode="&#x24;" d="M155 694Q184 694 204.50 685.50Q225 677 237.50 662.50Q250 648 256 628.50Q262 609 262 587L262 544L185 544L185 587Q185 599 178 608Q171 617 155 617L142 617L142 474L155 474Q184 474 204.50 465.50Q225 457 237.50 442.50Q250 428 256 408.50Q262 389 262 367L262 107Q262 85 256 65.50Q250 46 237.50 31.50Q225 17 204.50 8.50Q184 0 155 0L142 0L142-66L120-66L120 0L107 0Q78 0 57.50 8.50Q37 17 24.50 31.50Q12 46 6 65.50Q0 85 0 107L0 308L77 308L77 107Q77 95 83.50 86Q90 77 107 77L120 77L120 397L107 397Q78 397 57.50 405.50Q37 414 24.50 428.50Q12 443 6 462.50Q0 482 0 504L0 587Q0 609 6 628.50Q12 648 24.50 662.50Q37 677 57.50 685.50Q78 694 107 694L120 694L120 760L142 760L142 694L155 694M142 397L142 77L155 77Q171 77 178 86Q185 95 185 107L185 367Q185 379 178 388Q171 397 155 397L142 397M120 617L107 617Q90 617 83.50 608Q77 599 77 587L77 504Q77 491 83.50 482.50Q90 474 107 474L120 474L120 617Z"  horiz-adv-x="372" vert-adv-y="1000"  />

      
      <glyph glyph-name="uni5f" unicode="&#x5f;" d="M240-33L0-33L0 33L240 33L240-33L240-33Z"  horiz-adv-x="350" vert-adv-y="1000"  />

      
      <glyph glyph-name="uni40" unicode="&#x40;" d="M510 694Q539 694 559.50 685.50Q580 677 592.50 662.50Q605 648 611 628.50Q617 609 617 587L617 259Q617 219 597 189Q577 159 530 153L507 152L501 152L499 152Q479 153 464.50 158.50Q450 164 439.50 172.50Q429 181 423 190.50Q417 200 413 210Q391 176 368 163.50Q345 151 309 151Q240 151 207.50 189.50Q175 228 175 308L175 385Q175 465 207.50 504Q240 543 309 543Q336 543 360 529.50Q384 516 394 488L394 540L442 540L442 279Q442 259 456.50 244Q471 229 497 229L510 229Q527 229 533.50 238Q540 247 540 259L540 587Q540 599 533.50 608Q527 617 510 617L107 617Q91 617 84 608Q77 599 77 587L77 107Q77 95 84 86Q91 77 107 77L499 77L499 0L107 0Q78 0 57.50 8.50Q37 17 24.50 31.50Q12 46 6 65.50Q0 85 0 107L0 587Q0 609 6 628.50Q12 648 24.50 662.50Q37 677 57.50 685.50Q78 694 107 694L510 694M365 403Q365 431 351.50 450Q338 469 309 469Q280 469 266 450Q252 431 252 403L252 290Q252 262 266 243.50Q280 225 309 225Q338 225 351.50 243.50Q365 262 365 290L365 403Z"  horiz-adv-x="727" vert-adv-y="1000"  />

      
      <glyph glyph-name="uni25" unicode="&#x25;" d="M423 694L66 0L0 0L357 694L423 694M97 434Q76 434 57 442.50Q38 451 23.50 467.50Q9 484 0 508.50Q-9 533-9 566Q-9 598 0 622.50Q9 647 23.50 663.50Q38 680 57 688.50Q76 697 97 697Q118 697 137.50 688.50Q157 680 171.50 663.50Q186 647 195 622.50Q204 598 204 566Q204 533 195 508.50Q186 484 171.50 467.50Q157 451 137.50 442.50Q118 434 97 434M49 563Q49 517 63 497Q77 477 97 477Q117 477 131.50 497Q146 517 146 563L146 569Q146 614 131.50 634Q117 654 97 654Q77 654 63 634Q49 614 49 569L49 563M325 260Q346 260 365.50 251.50Q385 243 399.50 226.50Q414 210 423 185.50Q432 161 432 128Q432 95 423 70.50Q414 46 399.50 29.50Q385 13 365.50 5Q346-3 325-3Q304-3 285 5Q266 13 251.50 29.50Q237 46 228 70.50Q219 95 219 128Q219 161 228 185.50Q237 210 251.50 226.50Q266 243 285 251.50Q304 260 325 260M374 131Q374 176 359.50 196.50Q345 217 325 217Q305 217 291 196.50Q277 176 277 131L277 125Q277 80 291 60Q305 40 325 40Q345 40 359.50 60Q374 80 374 125L374 131Z"  horiz-adv-x="542" vert-adv-y="1000"  />

      
      <glyph glyph-name="uni23" unicode="&#x23;" d="M523 327L410 327L390 201L504 201L493 135L379 135L358 0L291 0L313 135L180 135L159 0L92 0L114 135L0 135L10 201L124 201L144 327L30 327L41 393L154 393L176 528L242 528L221 393L353 393L374 528L441 528L420 393L534 393L523 327M323 201L343 327L211 327L191 201L323 201Z"  horiz-adv-x="644" vert-adv-y="1000"  />

      
      <glyph glyph-name="uni5d" unicode="&#x5d;" d="M77 719L0 719L0 766L154 766L154-72L0-72L0-24L77-24L77 719L77 719Z"  horiz-adv-x="264" vert-adv-y="1000"  />

      
      <glyph glyph-name="uni5b" unicode="&#x5b;" d="M154 719L77 719L77-24L154-24L154-72L0-72L0 766L154 766L154 719L154 719Z"  horiz-adv-x="264" vert-adv-y="1000"  />

      
      <glyph glyph-name="uni3e" unicode="&#x3e;" d="M47 646L257 436L47 225L0 272L164 436L0 600L47 646L47 646Z"  horiz-adv-x="367" vert-adv-y="1000"  />

      
      <glyph glyph-name="uni3c" unicode="&#x3c;" d="M211 646L257 600L93 436L257 272L211 225L0 436L211 646L211 646Z"  horiz-adv-x="367" vert-adv-y="1000"  />

      
      <glyph glyph-name="uni26" unicode="&#x26;" d="M262 396L262 107Q262 85 256 65.50Q250 46 237 31.50Q224 17 203.50 8.50Q183 0 154 0L107 0Q78 0 57.50 8.50Q37 17 24.50 31.50Q12 46 6 65.50Q0 85 0 107L0 332Q0 378 17 401.50Q34 425 61 435Q34 445 17 468.50Q0 492 0 538L0 587Q0 609 6 628.50Q12 648 24.50 662.50Q37 677 57.50 685.50Q78 694 107 694L139 694Q168 694 188.50 685.50Q209 677 222 662.50Q235 648 241 628.50Q247 609 247 587L247 551L169 551L169 587Q169 599 162.50 608Q156 617 139 617L107 617Q91 617 84 608Q77 599 77 587L77 529Q77 502 92 488Q107 474 127 474L298 474L298 396L262 396M184 396L127 396Q107 396 92 382Q77 368 77 341L77 107Q77 95 84 86Q91 77 108 77L120 77L154 77Q171 77 177.50 86Q184 95 184 107L184 396Z"  horiz-adv-x="408" vert-adv-y="1000"  />

      
      <glyph glyph-name="uni22" unicode="&#x22;" d="M-1 569L-9 778L57 778L48 569L-1 569M126 569L117 778L183 778L175 569L126 569Z"  horiz-adv-x="303" vert-adv-y="1000"  />

      
      <glyph glyph-name="uni201C" unicode="&#x201C;" d="M180 557L93 388L180 219L155 185L0 388L155 591L180 557M366 557L278 388L366 219L340 185L185 388L340 591L366 557Z"  horiz-adv-x="496" vert-adv-y="1000"  />

      
      <glyph glyph-name="uni201D" unicode="&#x201D;" d="M273 388L186 557L211 591L366 388L211 185L186 219L273 388M88 388L0 557L26 591L181 388L26 185L0 219L88 388Z"  horiz-adv-x="476" vert-adv-y="1000"  />

      
      <glyph glyph-name="uni201E" unicode="&#x201E;" d="M86 97L51-112L1-112L1 97L86 97M234 97L199-112L149-112L149 97L234 97Z"  horiz-adv-x="344" vert-adv-y="1000"  />

      
      <glyph glyph-name="uni2018" unicode="&#x2018;" d="M8 569L0 778L66 778L57 569L8 569L8 569Z"  horiz-adv-x="176" vert-adv-y="1000"  />

      
      <glyph glyph-name="uni0403" unicode="&#x0403;" d="M178 889L136 759L70 759L112 889L178 889M0 694L232 694L232 617L77 617L77 0L0 0L0 694Z"  horiz-adv-x="345" vert-adv-y="1000"  />

      
      <glyph glyph-name="unicd" unicode="&#xcd;" d="M99 889L56 759L-10 759L33 889L99 889M0 0L0 694L77 694L77 0L0 0Z"  horiz-adv-x="217" vert-adv-y="1000"  />

      
      <glyph glyph-name="unicc" unicode="&#xcc;" d="M83 759L17 759L-26 889L40 889L83 759M0 0L0 694L77 694L77 0L0 0Z"  horiz-adv-x="209" vert-adv-y="1000"  />

      
      <glyph glyph-name="unice" unicode="&#xce;" d="M32 848L4 759L-62 759L-20 889L97 889L139 759L73 759L44 848L32 848M0 0L0 694L77 694L77 0L0 0Z"  horiz-adv-x="223" vert-adv-y="1000"  />

      
      <glyph glyph-name="unicf" unicode="&#xcf;" d="M-33 844Q-17 844-5.50 832.50Q6 821 6 805Q6 789-5.50 778Q-17 767-33 767Q-49 767-60.50 778Q-72 789-72 805Q-72 821-60.50 832.50Q-49 844-33 844M109 844Q126 844 137 832.50Q148 821 148 805Q148 789 137 778Q126 767 109 767Q93 767 82 778Q71 789 71 805Q71 821 82 832.50Q93 844 109 844M0 694L77 694L77 0L0 0L0 694Z"  horiz-adv-x="228" vert-adv-y="1000"  />

      
      <glyph glyph-name="uni015F" unicode="&#x015F;" d="M180 544L180 593Q180 605 173 614Q166 623 150 623L107 623Q90 623 83.50 614Q77 605 77 593L77 504Q77 491 83.50 482.50Q90 474 107 474L150 474Q179 474 199.50 465.50Q220 457 232.50 442.50Q245 428 251 408.50Q257 389 257 367L257 101Q257 79 251 59.50Q245 40 232.50 25.50Q220 11 199.50 2.50Q179-6 150-6L146-6L146-23Q182-28 204-51Q215-62 225-82Q235-102 235-135Q235-169 225-189Q215-209 204-220Q175-249 128-249Q82-249 53-220Q42-209 31.50-189Q21-169 21-135L87-135Q87-183 128-183Q169-183 169-135Q169-88 128-88L68-88L68-1Q32 10 16 37.50Q0 65 0 101L0 308L77 308L77 101Q77 89 83.50 80Q90 71 107 71L150 71Q166 71 173 80Q180 89 180 101L180 367Q180 379 173 388Q166 397 150 397L107 397Q78 397 57.50 405.50Q37 414 24.50 428.50Q12 443 6 462.50Q0 482 0 504L0 593Q0 615 6 634.50Q12 654 24.50 668.50Q37 683 57.50 691.50Q78 700 107 700L150 700Q179 700 199.50 691.50Q220 683 232.50 668.50Q245 654 251 634.50Q257 615 257 593L257 544L180 544Z"  horiz-adv-x="389" vert-adv-y="1000"  />

      
      <glyph glyph-name="unid6" unicode="&#xd6;" d="M207 767Q191 767 180 778Q169 789 169 805Q169 821 180 832.50Q191 844 207 844Q224 844 235 832.50Q246 821 246 805Q246 789 235 778Q224 767 207 767M65 767Q49 767 37.50 778Q26 789 26 805Q26 821 37.50 832.50Q49 844 65 844Q81 844 92.50 832.50Q104 821 104 805Q104 789 92.50 778Q81 767 65 767M166 700Q195 700 215.50 691.50Q236 683 248.50 668.50Q261 654 267 634.50Q273 615 273 593L273 101Q273 79 267 59.50Q261 40 248.50 25.50Q236 11 215.50 2.50Q195-6 166-6L107-6Q78-6 57.50 2.50Q37 11 24.50 25.50Q12 40 6 59.50Q0 79 0 101L0 593Q0 615 6 634.50Q12 654 24.50 668.50Q37 683 57.50 691.50Q78 700 107 700L166 700M196 593Q196 605 189 614Q182 623 166 623L107 623Q90 623 83.50 614Q77 605 77 593L77 101Q77 89 83.50 80Q90 71 107 71L166 71Q182 71 189 80Q196 89 196 101L196 593Z"  horiz-adv-x="405" vert-adv-y="1000"  />

      
      <glyph glyph-name="unif6" unicode="&#xf6;" d="M207 767Q191 767 180 778Q169 789 169 805Q169 821 180 832.50Q191 844 207 844Q224 844 235 832.50Q246 821 246 805Q246 789 235 778Q224 767 207 767M65 767Q49 767 37.50 778Q26 789 26 805Q26 821 37.50 832.50Q49 844 65 844Q81 844 92.50 832.50Q104 821 104 805Q104 789 92.50 778Q81 767 65 767M166 700Q195 700 215.50 691.50Q236 683 248.50 668.50Q261 654 267 634.50Q273 615 273 593L273 101Q273 79 267 59.50Q261 40 248.50 25.50Q236 11 215.50 2.50Q195-6 166-6L107-6Q78-6 57.50 2.50Q37 11 24.50 25.50Q12 40 6 59.50Q0 79 0 101L0 593Q0 615 6 634.50Q12 654 24.50 668.50Q37 683 57.50 691.50Q78 700 107 700L166 700M196 593Q196 605 189 614Q182 623 166 623L107 623Q90 623 83.50 614Q77 605 77 593L77 101Q77 89 83.50 80Q90 71 107 71L166 71Q182 71 189 80Q196 89 196 101L196 593Z"  horiz-adv-x="405" vert-adv-y="1000"  />

      
      <glyph glyph-name="unie7" unicode="&#xe7;" d="M195 459L195 593Q195 605 188 614Q181 623 165 623L107 623Q91 623 84 614Q77 605 77 593L77 101Q77 89 84 80Q91 71 107 71L165 71Q181 71 188 80Q195 89 195 101L195 297L272 297L272 101Q272 79 266 59.50Q260 40 247.50 25.50Q235 11 214.50 2.50Q194-6 165-6L153-6L153-23Q189-28 211-51Q222-62 232.50-82Q243-102 243-135Q243-169 232.50-189Q222-209 211-220Q182-249 136-249Q91-249 60-220Q49-209 39-189Q29-169 29-135L95-135Q95-183 136-183Q177-183 177-135Q177-88 136-88L75-88L75-3Q35 6 17.50 34.50Q0 63 0 101L0 593Q0 615 6 634.50Q12 654 24.50 668.50Q37 683 57.50 691.50Q78 700 107 700L165 700Q194 700 214.50 691.50Q235 683 247.50 668.50Q260 654 266 634.50Q272 615 272 593L272 459L195 459Z"  horiz-adv-x="404" vert-adv-y="1000"  />

      
      <glyph glyph-name="unic7" unicode="&#xc7;" d="M195 459L195 593Q195 605 188 614Q181 623 165 623L107 623Q91 623 84 614Q77 605 77 593L77 101Q77 89 84 80Q91 71 107 71L165 71Q181 71 188 80Q195 89 195 101L195 297L272 297L272 101Q272 79 266 59.50Q260 40 247.50 25.50Q235 11 214.50 2.50Q194-6 165-6L153-6L153-23Q189-28 211-51Q222-62 232.50-82Q243-102 243-135Q243-169 232.50-189Q222-209 211-220Q182-249 136-249Q91-249 60-220Q49-209 39-189Q29-169 29-135L95-135Q95-183 136-183Q177-183 177-135Q177-88 136-88L75-88L75-3Q35 6 17.50 34.50Q0 63 0 101L0 593Q0 615 6 634.50Q12 654 24.50 668.50Q37 683 57.50 691.50Q78 700 107 700L165 700Q194 700 214.50 691.50Q235 683 247.50 668.50Q260 654 266 634.50Q272 615 272 593L272 459L195 459Z"  horiz-adv-x="404" vert-adv-y="1000"  />

      
      <glyph glyph-name="unifc" unicode="&#xfc;" d="M61 767Q45 767 33.50 778Q22 789 22 805Q22 821 33.50 832.50Q45 844 61 844Q77 844 88.50 832.50Q100 821 100 805Q100 789 88.50 778Q77 767 61 767M203 767Q187 767 176 778Q165 789 165 805Q165 821 176 832.50Q187 844 203 844Q220 844 231 832.50Q242 821 242 805Q242 789 231 778Q220 767 203 767M264 694L264 101Q264 79 258 59.50Q252 40 239.50 25.50Q227 11 206.50 2.50Q186-6 157-6L107-6Q78-6 57.50 2.50Q37 11 24.50 25.50Q12 40 6 59.50Q0 79 0 101L0 694L77 694L77 101Q77 89 84 80Q91 71 107 71L157 71Q173 71 180 80Q187 89 187 101L187 694L264 694Z"  horiz-adv-x="400" vert-adv-y="1000"  />

      
      <glyph glyph-name="unidc" unicode="&#xdc;" d="M61 767Q45 767 33.50 778Q22 789 22 805Q22 821 33.50 832.50Q45 844 61 844Q77 844 88.50 832.50Q100 821 100 805Q100 789 88.50 778Q77 767 61 767M203 767Q187 767 176 778Q165 789 165 805Q165 821 176 832.50Q187 844 203 844Q220 844 231 832.50Q242 821 242 805Q242 789 231 778Q220 767 203 767M264 694L264 101Q264 79 258 59.50Q252 40 239.50 25.50Q227 11 206.50 2.50Q186-6 157-6L107-6Q78-6 57.50 2.50Q37 11 24.50 25.50Q12 40 6 59.50Q0 79 0 101L0 694L77 694L77 101Q77 89 84 80Q91 71 107 71L157 71Q173 71 180 80Q187 89 187 101L187 694L264 694Z"  horiz-adv-x="400" vert-adv-y="1000"  />

      
      <glyph glyph-name="uniff" unicode="&#xff;" d="M62 767Q46 767 34.50 778Q23 789 23 805Q23 821 34.50 832.50Q46 844 62 844Q78 844 89.50 832.50Q101 821 101 805Q101 789 89.50 778Q78 767 62 767M204 767Q188 767 177 778Q166 789 166 805Q166 821 177 832.50Q188 844 204 844Q221 844 232 832.50Q243 821 243 805Q243 789 232 778Q221 767 204 767M267 694L267 327Q267 285 245 254.50Q223 224 172 220L172 0L95 0L95 220Q44 224 22 254.50Q0 285 0 327L0 694L77 694L77 327Q77 315 84 306Q91 297 107 297L160 297Q176 297 183 306Q190 315 190 327L190 694L267 694Z"  horiz-adv-x="400" vert-adv-y="1000"  />

      
      <glyph glyph-name="uni0178" unicode="&#x0178;" d="M62 767Q46 767 34.50 778Q23 789 23 805Q23 821 34.50 832.50Q46 844 62 844Q78 844 89.50 832.50Q101 821 101 805Q101 789 89.50 778Q78 767 62 767M204 767Q188 767 177 778Q166 789 166 805Q166 821 177 832.50Q188 844 204 844Q221 844 232 832.50Q243 821 243 805Q243 789 232 778Q221 767 204 767M267 694L267 327Q267 285 245 254.50Q223 224 172 220L172 0L95 0L95 220Q44 224 22 254.50Q0 285 0 327L0 694L77 694L77 327Q77 315 84 306Q91 297 107 297L160 297Q176 297 183 306Q190 315 190 327L190 694L267 694Z"  horiz-adv-x="400" vert-adv-y="1000"  />

      
      <glyph glyph-name="unid3" unicode="&#xd3;" d="M152 759L86 759L129 889L195 889L152 759M166 700Q195 700 215.50 691.50Q236 683 248.50 668.50Q261 654 267 634.50Q273 615 273 593L273 101Q273 79 267 59.50Q261 40 248.50 25.50Q236 11 215.50 2.50Q195-6 166-6L107-6Q78-6 57.50 2.50Q37 11 24.50 25.50Q12 40 6 59.50Q0 79 0 101L0 593Q0 615 6 634.50Q12 654 24.50 668.50Q37 683 57.50 691.50Q78 700 107 700L166 700M196 593Q196 605 189 614Q182 623 166 623L107 623Q90 623 83.50 614Q77 605 77 593L77 101Q77 89 83.50 80Q90 71 107 71L166 71Q182 71 189 80Q196 89 196 101L196 593Z"  horiz-adv-x="405" vert-adv-y="1000"  />

      
      <glyph glyph-name="unif3" unicode="&#xf3;" d="M152 759L86 759L129 889L195 889L152 759M166 700Q195 700 215.50 691.50Q236 683 248.50 668.50Q261 654 267 634.50Q273 615 273 593L273 101Q273 79 267 59.50Q261 40 248.50 25.50Q236 11 215.50 2.50Q195-6 166-6L107-6Q78-6 57.50 2.50Q37 11 24.50 25.50Q12 40 6 59.50Q0 79 0 101L0 593Q0 615 6 634.50Q12 654 24.50 668.50Q37 683 57.50 691.50Q78 700 107 700L166 700M196 593Q196 605 189 614Q182 623 166 623L107 623Q90 623 83.50 614Q77 605 77 593L77 101Q77 89 83.50 80Q90 71 107 71L166 71Q182 71 189 80Q196 89 196 101L196 593Z"  horiz-adv-x="405" vert-adv-y="1000"  />

      
      <glyph glyph-name="unid2" unicode="&#xd2;" d="M106 759L64 889L130 889L172 759L106 759M166 700Q195 700 215.50 691.50Q236 683 248.50 668.50Q261 654 267 634.50Q273 615 273 593L273 101Q273 79 267 59.50Q261 40 248.50 25.50Q236 11 215.50 2.50Q195-6 166-6L107-6Q78-6 57.50 2.50Q37 11 24.50 25.50Q12 40 6 59.50Q0 79 0 101L0 593Q0 615 6 634.50Q12 654 24.50 668.50Q37 683 57.50 691.50Q78 700 107 700L166 700M196 593Q196 605 189 614Q182 623 166 623L107 623Q90 623 83.50 614Q77 605 77 593L77 101Q77 89 83.50 80Q90 71 107 71L166 71Q182 71 189 80Q196 89 196 101L196 593Z"  horiz-adv-x="405" vert-adv-y="1000"  />

      
      <glyph glyph-name="unif2" unicode="&#xf2;" d="M106 759L64 889L130 889L172 759L106 759M166 700Q195 700 215.50 691.50Q236 683 248.50 668.50Q261 654 267 634.50Q273 615 273 593L273 101Q273 79 267 59.50Q261 40 248.50 25.50Q236 11 215.50 2.50Q195-6 166-6L107-6Q78-6 57.50 2.50Q37 11 24.50 25.50Q12 40 6 59.50Q0 79 0 101L0 593Q0 615 6 634.50Q12 654 24.50 668.50Q37 683 57.50 691.50Q78 700 107 700L166 700M196 593Q196 605 189 614Q182 623 166 623L107 623Q90 623 83.50 614Q77 605 77 593L77 101Q77 89 83.50 80Q90 71 107 71L166 71Q182 71 189 80Q196 89 196 101L196 593Z"  horiz-adv-x="405" vert-adv-y="1000"  />

      
      <glyph glyph-name="unic4" unicode="&#xc4;" d="M323 0L245 0L230 133L93 133L77 0L0 0L79 694L243 694L323 0M222 203L174 617L148 617L101 203L222 203M232 767Q216 767 205 778Q194 789 194 805Q194 821 205 832.50Q216 844 232 844Q249 844 260 832.50Q271 821 271 805Q271 789 260 778Q249 767 232 767M90 767Q74 767 62.50 778Q51 789 51 805Q51 821 62.50 832.50Q74 844 90 844Q106 844 117.50 832.50Q129 821 129 805Q129 789 117.50 778Q106 767 90 767Z"  horiz-adv-x="440" vert-adv-y="1000"  />

      
      <glyph glyph-name="unie4" unicode="&#xe4;" d="M323 0L245 0L230 133L93 133L77 0L0 0L79 694L243 694L323 0M222 203L174 617L148 617L101 203L222 203M232 767Q216 767 205 778Q194 789 194 805Q194 821 205 832.50Q216 844 232 844Q249 844 260 832.50Q271 821 271 805Q271 789 260 778Q249 767 232 767M90 767Q74 767 62.50 778Q51 789 51 805Q51 821 62.50 832.50Q74 844 90 844Q106 844 117.50 832.50Q129 821 129 805Q129 789 117.50 778Q106 767 90 767Z"  horiz-adv-x="440" vert-adv-y="1000"  />

      
      <glyph glyph-name="unic0" unicode="&#xc0;" d="M243 694L323 0L245 0L230 133L93 133L77 0L0 0L79 694L243 694M101 203L222 203L174 617L148 617L101 203M193 759L127 759L84 889L150 889L193 759Z"  horiz-adv-x="440" vert-adv-y="1000"  />

      
      <glyph glyph-name="unie0" unicode="&#xe0;" d="M243 694L323 0L245 0L230 133L93 133L77 0L0 0L79 694L243 694M101 203L222 203L174 617L148 617L101 203M193 759L127 759L84 889L150 889L193 759Z"  horiz-adv-x="440" vert-adv-y="1000"  />

      
      <glyph glyph-name="unic1" unicode="&#xc1;" d="M243 694L323 0L245 0L230 133L93 133L77 0L0 0L79 694L243 694M101 203L222 203L174 617L148 617L101 203M222 889L180 759L114 759L156 889L222 889Z"  horiz-adv-x="440" vert-adv-y="1000"  />

      
      <glyph glyph-name="unie1" unicode="&#xe1;" d="M243 694L323 0L245 0L230 133L93 133L77 0L0 0L79 694L243 694M101 203L222 203L174 617L148 617L101 203M222 889L180 759L114 759L156 889L222 889Z"  horiz-adv-x="440" vert-adv-y="1000"  />

      
      <glyph glyph-name="unida" unicode="&#xda;" d="M144 759L78 759L120 889L186 889L144 759M264 694L264 101Q264 79 258 59.50Q252 40 239.50 25.50Q227 11 206.50 2.50Q186-6 157-6L107-6Q78-6 57.50 2.50Q37 11 24.50 25.50Q12 40 6 59.50Q0 79 0 101L0 694L77 694L77 101Q77 89 84 80Q91 71 107 71L157 71Q173 71 180 80Q187 89 187 101L187 694L264 694Z"  horiz-adv-x="400" vert-adv-y="1000"  />

      
      <glyph glyph-name="unifa" unicode="&#xfa;" d="M144 759L78 759L120 889L186 889L144 759M264 694L264 101Q264 79 258 59.50Q252 40 239.50 25.50Q227 11 206.50 2.50Q186-6 157-6L107-6Q78-6 57.50 2.50Q37 11 24.50 25.50Q12 40 6 59.50Q0 79 0 101L0 694L77 694L77 101Q77 89 84 80Q91 71 107 71L157 71Q173 71 180 80Q187 89 187 101L187 694L264 694Z"  horiz-adv-x="400" vert-adv-y="1000"  />

      
      <glyph glyph-name="unid9" unicode="&#xd9;" d="M110 759L68 889L134 889L176 759L110 759M264 694L264 101Q264 79 258 59.50Q252 40 239.50 25.50Q227 11 206.50 2.50Q186-6 157-6L107-6Q78-6 57.50 2.50Q37 11 24.50 25.50Q12 40 6 59.50Q0 79 0 101L0 694L77 694L77 101Q77 89 84 80Q91 71 107 71L157 71Q173 71 180 80Q187 89 187 101L187 694L264 694Z"  horiz-adv-x="400" vert-adv-y="1000"  />

      
      <glyph glyph-name="unif9" unicode="&#xf9;" d="M110 759L68 889L134 889L176 759L110 759M264 694L264 101Q264 79 258 59.50Q252 40 239.50 25.50Q227 11 206.50 2.50Q186-6 157-6L107-6Q78-6 57.50 2.50Q37 11 24.50 25.50Q12 40 6 59.50Q0 79 0 101L0 694L77 694L77 101Q77 89 84 80Q91 71 107 71L157 71Q173 71 180 80Q187 89 187 101L187 694L264 694Z"  horiz-adv-x="400" vert-adv-y="1000"  />

      
      <glyph glyph-name="unidb" unicode="&#xdb;" d="M97 759L31 759L73 889L191 889L233 759L167 759L138 848L126 848L97 759M264 694L264 101Q264 79 258 59.50Q252 40 239.50 25.50Q227 11 206.50 2.50Q186-6 157-6L107-6Q78-6 57.50 2.50Q37 11 24.50 25.50Q12 40 6 59.50Q0 79 0 101L0 694L77 694L77 101Q77 89 84 80Q91 71 107 71L157 71Q173 71 180 80Q187 89 187 101L187 694L264 694Z"  horiz-adv-x="400" vert-adv-y="1000"  />

      
      <glyph glyph-name="unifb" unicode="&#xfb;" d="M97 759L31 759L73 889L191 889L233 759L167 759L138 848L126 848L97 759M264 694L264 101Q264 79 258 59.50Q252 40 239.50 25.50Q227 11 206.50 2.50Q186-6 157-6L107-6Q78-6 57.50 2.50Q37 11 24.50 25.50Q12 40 6 59.50Q0 79 0 101L0 694L77 694L77 101Q77 89 84 80Q91 71 107 71L157 71Q173 71 180 80Q187 89 187 101L187 694L264 694Z"  horiz-adv-x="400" vert-adv-y="1000"  />

      
      <glyph glyph-name="unid4" unicode="&#xd4;" d="M102 759L36 759L78 889L195 889L237 759L171 759L142 848L130 848L102 759M166 700Q195 700 215.50 691.50Q236 683 248.50 668.50Q261 654 267 634.50Q273 615 273 593L273 101Q273 79 267 59.50Q261 40 248.50 25.50Q236 11 215.50 2.50Q195-6 166-6L107-6Q78-6 57.50 2.50Q37 11 24.50 25.50Q12 40 6 59.50Q0 79 0 101L0 593Q0 615 6 634.50Q12 654 24.50 668.50Q37 683 57.50 691.50Q78 700 107 700L166 700M196 593Q196 605 189 614Q182 623 166 623L107 623Q90 623 83.50 614Q77 605 77 593L77 101Q77 89 83.50 80Q90 71 107 71L166 71Q182 71 189 80Q196 89 196 101L196 593Z"  horiz-adv-x="405" vert-adv-y="1000"  />

      
      <glyph glyph-name="unif4" unicode="&#xf4;" d="M102 759L36 759L78 889L195 889L237 759L171 759L142 848L130 848L102 759M166 700Q195 700 215.50 691.50Q236 683 248.50 668.50Q261 654 267 634.50Q273 615 273 593L273 101Q273 79 267 59.50Q261 40 248.50 25.50Q236 11 215.50 2.50Q195-6 166-6L107-6Q78-6 57.50 2.50Q37 11 24.50 25.50Q12 40 6 59.50Q0 79 0 101L0 593Q0 615 6 634.50Q12 654 24.50 668.50Q37 683 57.50 691.50Q78 700 107 700L166 700M196 593Q196 605 189 614Q182 623 166 623L107 623Q90 623 83.50 614Q77 605 77 593L77 101Q77 89 83.50 80Q90 71 107 71L166 71Q182 71 189 80Q196 89 196 101L196 593Z"  horiz-adv-x="405" vert-adv-y="1000"  />

      
      <glyph glyph-name="unic2" unicode="&#xc2;" d="M245 0L230 133L93 133L77 0L0 0L79 694L243 694L323 0L245 0M101 203L222 203L174 617L148 617L101 203M196 759L167 848L155 848L127 759L61 759L103 889L220 889L262 759L196 759Z"  horiz-adv-x="440" vert-adv-y="1000"  />

      
      <glyph glyph-name="unie2" unicode="&#xe2;" d="M245 0L230 133L93 133L77 0L0 0L79 694L243 694L323 0L245 0M101 203L222 203L174 617L148 617L101 203M196 759L167 848L155 848L127 759L61 759L103 889L220 889L262 759L196 759Z"  horiz-adv-x="440" vert-adv-y="1000"  />

      
      <glyph glyph-name="unica" unicode="&#xca;" d="M150 759L121 848L109 848L81 759L15 759L57 889L174 889L216 759L150 759M0 694L231 694L231 617L77 617L77 474L192 474L192 396L77 396L77 77L231 77L231 0L0 0L0 694Z"  horiz-adv-x="357" vert-adv-y="1000"  />

      
      <glyph glyph-name="uniea" unicode="&#xea;" d="M150 759L121 848L109 848L81 759L15 759L57 889L174 889L216 759L150 759M0 694L231 694L231 617L77 617L77 474L192 474L192 396L77 396L77 77L231 77L231 0L0 0L0 694Z"  horiz-adv-x="357" vert-adv-y="1000"  />

      
      <glyph glyph-name="unic8" unicode="&#xc8;" d="M163 759L97 759L54 889L120 889L163 759M231 617L77 617L77 474L192 474L192 396L77 396L77 77L231 77L231 0L0 0L0 694L231 694L231 617Z"  horiz-adv-x="357" vert-adv-y="1000"  />

      
      <glyph glyph-name="unie8" unicode="&#xe8;" d="M163 759L97 759L54 889L120 889L163 759M231 617L77 617L77 474L192 474L192 396L77 396L77 77L231 77L231 0L0 0L0 694L231 694L231 617Z"  horiz-adv-x="357" vert-adv-y="1000"  />

      
      <glyph glyph-name="unie9" unicode="&#xe9;" d="M179 889L136 759L70 759L113 889L179 889M231 617L77 617L77 474L192 474L192 396L77 396L77 77L231 77L231 0L0 0L0 694L231 694L231 617Z"  horiz-adv-x="357" vert-adv-y="1000"  />

      
      <glyph glyph-name="unic9" unicode="&#xc9;" d="M179 889L136 759L70 759L113 889L179 889M231 617L77 617L77 474L192 474L192 396L77 396L77 77L231 77L231 0L0 0L0 694L231 694L231 617Z"  horiz-adv-x="357" vert-adv-y="1000"  />

      
      <glyph glyph-name="unicb" unicode="&#xcb;" d="M77 617L77 474L192 474L192 396L77 396L77 77L231 77L231 0L0 0L0 694L231 694L231 617L77 617M177 767Q161 767 150 778Q139 789 139 805Q139 821 150 832.50Q161 844 177 844Q194 844 205 832.50Q216 821 216 805Q216 789 205 778Q194 767 177 767M54 767Q38 767 26.50 778Q15 789 15 805Q15 821 26.50 832.50Q38 844 54 844Q70 844 81.50 832.50Q93 821 93 805Q93 789 81.50 778Q70 767 54 767Z"  horiz-adv-x="357" vert-adv-y="1000"  />

      
      <glyph glyph-name="unieb" unicode="&#xeb;" d="M77 617L77 474L192 474L192 396L77 396L77 77L231 77L231 0L0 0L0 694L231 694L231 617L77 617M177 767Q161 767 150 778Q139 789 139 805Q139 821 150 832.50Q161 844 177 844Q194 844 205 832.50Q216 821 216 805Q216 789 205 778Q194 767 177 767M54 767Q38 767 26.50 778Q15 789 15 805Q15 821 26.50 832.50Q38 844 54 844Q70 844 81.50 832.50Q93 821 93 805Q93 789 81.50 778Q70 767 54 767Z"  horiz-adv-x="357" vert-adv-y="1000"  />

      
      <glyph glyph-name="unia5" unicode="&#xa5;" d="M267 454Q267 412 245 381.50Q223 351 172 347L172 283L265 283L265 235L172 235L172 187L265 187L265 139L172 139L172 0L95 0L95 139L0 139L0 187L95 187L95 235L0 235L0 283L95 283L95 347Q44 351 22 381.50Q0 412 0 454L0 694L77 694L77 454Q77 442 84 433Q91 424 107 424L160 424Q176 424 183 433Q190 442 190 454L190 694L267 694L267 454L267 454Z"  horiz-adv-x="377" vert-adv-y="1000"  />

      
      <glyph glyph-name="uni20AC" unicode="&#x20AC;" d="M183 525L183 587Q183 599 176 608Q169 617 153 617L107 617Q91 617 84 608Q77 599 77 587L77 426L260 426L260 379L77 379L77 314L260 314L260 267L77 267L77 107Q77 95 84 86Q91 77 107 77L153 77Q169 77 176 86Q183 95 183 107L183 169L260 169L260 107Q260 85 254 65.50Q248 46 235.50 31.50Q223 17 202.50 8.50Q182 0 153 0L107 0Q78 0 57.50 8.50Q37 17 24.50 31.50Q12 46 6 65.50Q0 85 0 107L0 267L-47 267L-47 314L0 314L0 379L-47 379L-47 426L0 426L0 587Q0 609 6 628.50Q12 648 24.50 662.50Q37 677 57.50 685.50Q78 694 107 694L153 694Q182 694 202.50 685.50Q223 677 235.50 662.50Q248 648 254 628.50Q260 609 260 587L260 525L183 525Z"  horiz-adv-x="370" vert-adv-y="1000"  />

      
      <glyph glyph-name="unibf" unicode="&#xbf;" d="M107 0Q78 0 57.50 8.50Q37 17 24.50 31.50Q12 46 6 65.50Q0 85 0 107L0 268Q0 308 19.50 338Q39 368 85 374L86 374Q99 376 104.50 384.50Q110 393 110 404L110 482L188 482L188 404Q188 363 167.50 333.50Q147 304 101 298L100 298Q88 296 82.50 287.50Q77 279 77 268L77 107Q77 95 84 86Q91 77 107 77L149 77Q165 77 172 86Q179 95 179 107L179 235L256 235L256 107Q256 85 250 65.50Q244 46 231.50 31.50Q219 17 198.50 8.50Q178 0 149 0L107 0M198 597L101 597L101 694L198 694L198 597Z"  horiz-adv-x="366" vert-adv-y="1000"  />

      
      <glyph glyph-name="unia1" unicode="&#xa1;" d="M87 597L-10 597L-10 694L87 694L87 597M0 0L0 482L77 482L77 0L0 0Z"  horiz-adv-x="197" vert-adv-y="1000"  />

      
      <glyph glyph-name="unied" unicode="&#xed;" d="M99 889L56 759L-10 759L33 889L99 889M0 0L0 694L77 694L77 0L0 0Z"  horiz-adv-x="217" vert-adv-y="1000"  />

      
      <glyph glyph-name="uniec" unicode="&#xec;" d="M83 759L17 759L-26 889L40 889L83 759M0 0L0 694L77 694L77 0L0 0Z"  horiz-adv-x="209" vert-adv-y="1000"  />

      
      <glyph glyph-name="uniee" unicode="&#xee;" d="M32 848L4 759L-62 759L-20 889L97 889L139 759L73 759L44 848L32 848M0 0L0 694L77 694L77 0L0 0Z"  horiz-adv-x="223" vert-adv-y="1000"  />

      
      <glyph glyph-name="unief" unicode="&#xef;" d="M-33 844Q-17 844-5.50 832.50Q6 821 6 805Q6 789-5.50 778Q-17 767-33 767Q-49 767-60.50 778Q-72 789-72 805Q-72 821-60.50 832.50Q-49 844-33 844M109 844Q126 844 137 832.50Q148 821 148 805Q148 789 137 778Q126 767 109 767Q93 767 82 778Q71 789 71 805Q71 821 82 832.50Q93 844 109 844M0 694L77 694L77 0L0 0L0 694Z"  horiz-adv-x="228" vert-adv-y="1000"  />

      
      <glyph glyph-name="unic5" unicode="&#xc5;" d="M323 0L245 0L230 133L93 133L77 0L0 0L79 694L243 694L323 0M222 203L174 617L148 617L101 203L222 203M161 755Q147 755 131 757Q115 759 101.50 766.50Q88 774 78.50 787.50Q69 801 69 824Q69 847 78.50 860.50Q88 874 101.50 881.50Q115 889 131 891Q147 893 161 893Q174 893 190.50 891Q207 889 221 881.50Q235 874 244.50 860.50Q254 847 254 824Q254 801 244.50 787.50Q235 774 221 766.50Q207 759 190.50 757Q174 755 161 755M161 864Q153 864 140.50 856.50Q128 849 128 824Q128 798 140.50 790.50Q153 783 161 783Q170 783 182.50 790.50Q195 798 195 824Q195 849 182.50 856.50Q170 864 161 864Z"  horiz-adv-x="440" vert-adv-y="1000"  />

      
      <glyph glyph-name="unie5" unicode="&#xe5;" d="M323 0L245 0L230 133L93 133L77 0L0 0L79 694L243 694L323 0M222 203L174 617L148 617L101 203L222 203M161 755Q147 755 131 757Q115 759 101.50 766.50Q88 774 78.50 787.50Q69 801 69 824Q69 847 78.50 860.50Q88 874 101.50 881.50Q115 889 131 891Q147 893 161 893Q174 893 190.50 891Q207 889 221 881.50Q235 874 244.50 860.50Q254 847 254 824Q254 801 244.50 787.50Q235 774 221 766.50Q207 759 190.50 757Q174 755 161 755M161 864Q153 864 140.50 856.50Q128 849 128 824Q128 798 140.50 790.50Q153 783 161 783Q170 783 182.50 790.50Q195 798 195 824Q195 849 182.50 856.50Q170 864 161 864Z"  horiz-adv-x="440" vert-adv-y="1000"  />

      
      <glyph glyph-name="unic3" unicode="&#xc3;" d="M245 0L323 0L243 694L79 694L0 0L77 0L93 133L230 133L245 0M101 203L148 617L174 617L222 203L101 203M80 755L14 755Q14 792 41 822Q55 839 74.50 847.50Q94 856 115 856Q143 856 159 847.50Q175 839 186 831Q193 826 197 823.50Q201 821 209 821Q221 821 226.50 824.50Q232 828 235 832Q239 837 240.50 844Q242 851 242 856L308 856Q308 820 288 792Q260 755 209 755Q185 755 170.50 763Q156 771 146 779Q138 784 132 787Q126 790 115 790Q98 790 89 777Q80 764 80 755Z"  horiz-adv-x="440" vert-adv-y="1000"  />

      
      <glyph glyph-name="unie3" unicode="&#xe3;" d="M245 0L323 0L243 694L79 694L0 0L77 0L93 133L230 133L245 0M101 203L148 617L174 617L222 203L101 203M80 755L14 755Q14 792 41 822Q55 839 74.50 847.50Q94 856 115 856Q143 856 159 847.50Q175 839 186 831Q193 826 197 823.50Q201 821 209 821Q221 821 226.50 824.50Q232 828 235 832Q239 837 240.50 844Q242 851 242 856L308 856Q308 820 288 792Q260 755 209 755Q185 755 170.50 763Q156 771 146 779Q138 784 132 787Q126 790 115 790Q98 790 89 777Q80 764 80 755Z"  horiz-adv-x="440" vert-adv-y="1000"  />

      
      <glyph glyph-name="unid5" unicode="&#xd5;" d="M90 790Q73 790 64 777Q55 764 55 755L-11 755Q-11 792 16 822Q30 839 49.50 847.50Q69 856 90 856Q118 856 134 847.50Q150 839 161 831Q168 826 172 823.50Q176 821 184 821Q196 821 201.50 824.50Q207 828 210 832Q214 837 215.50 844Q217 851 217 856L283 856Q283 820 263 792Q235 755 184 755Q160 755 145.50 763Q131 771 121 779Q113 784 107 787Q101 790 90 790M166 700Q195 700 215.50 691.50Q236 683 248.50 668.50Q261 654 267 634.50Q273 615 273 593L273 101Q273 79 267 59.50Q261 40 248.50 25.50Q236 11 215.50 2.50Q195-6 166-6L107-6Q78-6 57.50 2.50Q37 11 24.50 25.50Q12 40 6 59.50Q0 79 0 101L0 593Q0 615 6 634.50Q12 654 24.50 668.50Q37 683 57.50 691.50Q78 700 107 700L166 700M196 593Q196 605 189 614Q182 623 166 623L107 623Q90 623 83.50 614Q77 605 77 593L77 101Q77 89 83.50 80Q90 71 107 71L166 71Q182 71 189 80Q196 89 196 101L196 593Z"  horiz-adv-x="403" vert-adv-y="1000"  />

      
      <glyph glyph-name="unif5" unicode="&#xf5;" d="M90 790Q73 790 64 777Q55 764 55 755L-11 755Q-11 792 16 822Q30 839 49.50 847.50Q69 856 90 856Q118 856 134 847.50Q150 839 161 831Q168 826 172 823.50Q176 821 184 821Q196 821 201.50 824.50Q207 828 210 832Q214 837 215.50 844Q217 851 217 856L283 856Q283 820 263 792Q235 755 184 755Q160 755 145.50 763Q131 771 121 779Q113 784 107 787Q101 790 90 790M166 700Q195 700 215.50 691.50Q236 683 248.50 668.50Q261 654 267 634.50Q273 615 273 593L273 101Q273 79 267 59.50Q261 40 248.50 25.50Q236 11 215.50 2.50Q195-6 166-6L107-6Q78-6 57.50 2.50Q37 11 24.50 25.50Q12 40 6 59.50Q0 79 0 101L0 593Q0 615 6 634.50Q12 654 24.50 668.50Q37 683 57.50 691.50Q78 700 107 700L166 700M196 593Q196 605 189 614Q182 623 166 623L107 623Q90 623 83.50 614Q77 605 77 593L77 101Q77 89 83.50 80Q90 71 107 71L166 71Q182 71 189 80Q196 89 196 101L196 593Z"  horiz-adv-x="403" vert-adv-y="1000"  />

      
      <glyph glyph-name="unid1" unicode="&#xd1;" d="M88 790Q71 790 62 777Q53 764 53 755L-13 755Q-13 792 14 822Q43 856 88 856Q116 856 132 847.50Q148 839 158 831Q166 826 170 823.50Q174 821 182 821Q193 821 199 824.50Q205 828 207 832Q212 837 213.50 844Q215 851 215 856L281 856Q281 821 260 792Q232 755 182 755Q157 755 142.50 763Q128 771 118 779Q110 784 104.50 787Q99 790 88 790M191 694L268 694L268 0L191 0L191 326L77 441L77 0L0 0L0 694L77 694L77 538L191 419L191 694Z"  horiz-adv-x="413" vert-adv-y="1000"  />

      
      <glyph glyph-name="unif1" unicode="&#xf1;" d="M88 790Q71 790 62 777Q53 764 53 755L-13 755Q-13 792 14 822Q43 856 88 856Q116 856 132 847.50Q148 839 158 831Q166 826 170 823.50Q174 821 182 821Q193 821 199 824.50Q205 828 207 832Q212 837 213.50 844Q215 851 215 856L281 856Q281 821 260 792Q232 755 182 755Q157 755 142.50 763Q128 771 118 779Q110 784 104.50 787Q99 790 88 790M191 694L268 694L268 0L191 0L191 326L77 441L77 0L0 0L0 694L77 694L77 538L191 419L191 694Z"  horiz-adv-x="413" vert-adv-y="1000"  />

      
      <glyph glyph-name="uni2265" unicode="&#x2265;" d="M47 646L257 436L47 225L0 272L164 436L0 600L47 646M0 88L0 154L257 154L257 88L0 88Z"  horiz-adv-x="367" vert-adv-y="1000"  />

      
      <glyph glyph-name="uni2264" unicode="&#x2264;" d="M211 646L257 600L93 436L257 272L211 225L0 436L211 646L211 646M0 88L257 88L257 154L0 154L0 88L0 88Z"  horiz-adv-x="367" vert-adv-y="1000"  />

      
      <glyph glyph-name="unib1" unicode="&#xb1;" d="M-20 134L-20 200L268 200L268 134L-20 134M268 469L268 403L157 403L157 292L91 292L91 403L-20 403L-20 469L91 469L91 580L157 580L157 469L268 469Z"  horiz-adv-x="388" vert-adv-y="1000"  />

      
      <glyph glyph-name="uni2a" unicode="&#x2a;" d="M180 628L208 620L292 582L259 525L184 579L163 598L169 571L179 479L113 479L123 571L128 598L107 579L33 525L0 582L84 620L111 628L84 637L0 674L33 732L107 677L128 658L123 686L113 778L179 778L169 686L163 658L184 677L259 732L292 674L208 637L180 628L180 628Z"  horiz-adv-x="402" vert-adv-y="1000"  />

      
      <glyph glyph-name="uni7e" unicode="&#x7e;" d="M216 380Q190 380 172.50 389Q155 398 141 407Q129 415 118.50 420.50Q108 426 90 426Q79 426 70 420Q61 414 54 406Q46 397 40 386L-20 413Q-19 415-13 426Q-7 437 6 451Q42 492 90 492Q123 492 144 482Q165 472 179 462Q190 454 197.50 450Q205 446 216 446Q240 446 252 461Q255 466 257 471Q258 474 259 476L324 463Q323 461 319 448.50Q315 436 304 421Q293 407 272 393.50Q251 380 216 380Z"  horiz-adv-x="444" vert-adv-y="1000"  />

      
      <glyph glyph-name="uni2248" unicode="&#x2248;" d="M229 455Q208 455 191 461Q174 467 160 474Q146 481 133.50 485.50Q121 490 105 490Q86 490 68 479.50Q50 469 43 463L44 463L0 513Q2 514 11 521Q20 528 34 536Q48 544 66.50 550Q85 556 105 556Q132 556 152 549Q172 542 188 534Q199 529 209 525Q219 521 229 521Q256 521 270 532Q284 543 285 544L336 503Q331 496 321 488Q311 480 297.50 472.50Q284 465 267 460Q250 455 229 455M229 316Q208 316 191 322.50Q174 329 160 336Q146 342 133.50 346.50Q121 351 105 351Q86 351 68 340.50Q50 330 43 324L44 325L0 374Q2 376 11 383Q20 390 34 397.50Q48 405 66.50 411Q85 417 105 417Q132 417 152 410Q172 403 188 395Q199 390 209 386Q219 382 229 382Q256 382 270 393Q284 404 285 405L336 364Q331 357 321 349Q311 341 297.50 333.50Q284 326 267 321Q250 316 229 316Z"  horiz-adv-x="446" vert-adv-y="1000"  />

      
      <glyph glyph-name="unib0" unicode="&#xb0;" d="M108 580Q62 580 33 609Q22 620 11.50 640.50Q1 661 1 694Q1 727 11.50 747.50Q22 768 33 779Q62 808 108 808Q153 808 184 779Q195 768 205 747.50Q215 727 215 694Q215 661 205 640.50Q195 620 184 609Q153 580 108 580M108 742Q67 742 67 694Q67 646 108 646Q149 646 149 694Q149 742 108 742Z"  horiz-adv-x="325" vert-adv-y="1000"  />

      
      <glyph glyph-name="unic6" unicode="&#xc6;" d="M453 617L299 617L299 474L414 474L414 396L299 396L299 77L453 77L453 0L222 0L222 133L93 133L77 0L0 0L79 694L453 694L453 617M101 203L222 203L222 617L148 617L101 203Z"  horiz-adv-x="579" vert-adv-y="1000"  />

      
      <glyph glyph-name="unie6" unicode="&#xe6;" d="M453 617L299 617L299 474L414 474L414 396L299 396L299 77L453 77L453 0L222 0L222 133L93 133L77 0L0 0L79 694L453 694L453 617M101 203L222 203L222 617L148 617L101 203Z"  horiz-adv-x="579" vert-adv-y="1000"  />

      
      <glyph glyph-name="uni0152" unicode="&#x0152;" d="M273 617L273 474L388 474L388 396L273 396L273 77L427 77L427 0L107 0Q78 0 57.50 8.50Q37 17 24.50 31.50Q12 46 6 65.50Q0 85 0 107L0 587Q0 609 6 628.50Q12 648 24.50 662.50Q37 677 57.50 685.50Q78 694 107 694L427 694L427 617L273 617M196 77L196 617L107 617Q90 617 83.50 608Q77 599 77 587L77 107Q77 95 83.50 86Q90 77 107 77L196 77Z"  horiz-adv-x="553" vert-adv-y="1000"  />

      
      <glyph glyph-name="uni0153" unicode="&#x0153;" d="M273 617L273 474L388 474L388 396L273 396L273 77L427 77L427 0L107 0Q78 0 57.50 8.50Q37 17 24.50 31.50Q12 46 6 65.50Q0 85 0 107L0 587Q0 609 6 628.50Q12 648 24.50 662.50Q37 677 57.50 685.50Q78 694 107 694L427 694L427 617L273 617M196 77L196 617L107 617Q90 617 83.50 608Q77 599 77 587L77 107Q77 95 83.50 86Q90 77 107 77L196 77Z"  horiz-adv-x="553" vert-adv-y="1000"  />

      
      <glyph glyph-name="uni2019" unicode="&#x2019;" d="M0 569L8 778L57 778L66 569L0 569L0 569Z"  horiz-adv-x="176" vert-adv-y="1000"  />

      
      <glyph glyph-name="uni2020" unicode="&#x2020;" d="M203 398L125 398L125-72L48-72L48 398L-29 398L-29 475L48 475L48 694L125 694L125 475L203 475L203 398Z"  horiz-adv-x="312" vert-adv-y="1000"  />

      
      <glyph glyph-name="uni2021" unicode="&#x2021;" d="M125 398L125 296L203 296L203 219L125 219L125-78L48-78L48 219L-29 219L-29 296L48 296L48 398L-29 398L-29 475L48 475L48 693L125 693L125 475L203 475L203 398L125 398Z"  horiz-adv-x="312" vert-adv-y="1000"  />

      
      <glyph glyph-name="uni0192" unicode="&#x0192;" d="M231 460L231 412L154 412L154 30Q154 8 148-11.50Q142-31 129.50-45.50Q117-60 96.50-68.50Q76-77 47-77L0-77L0 0L47 0Q64 0 70.50 8.50Q77 17 77 30L77 412L0 412L0 460L77 460L77 664Q77 686 83 705.50Q89 725 101.50 739.50Q114 754 134.50 762.50Q155 771 184 771L231 771L231 694L184 694Q168 694 161 685Q154 676 154 664L154 460L231 460Z"  horiz-adv-x="341" vert-adv-y="1000"  />

      
      <glyph glyph-name="uni7c" unicode="&#x7c;" d="M0-72L0 766L77 766L77-72L0-72L0-72Z"  horiz-adv-x="187" vert-adv-y="1000"  />

      
      <glyph glyph-name="unia2" unicode="&#xa2;" d="M183 318L183 418Q183 430 176 439Q169 448 153 448L140 448L140 77L153 77Q169 77 176 86Q183 95 183 107L183 209L260 209L260 107Q260 85 254 65.50Q248 46 235.50 31.50Q223 17 202.50 8.50Q182 0 153 0L140 0L140-48L117-48L117 0L107 0Q78 0 57.50 8.50Q37 17 24.50 31.50Q12 46 6 65.50Q0 85 0 107L0 418Q0 440 6 459.50Q12 479 24.50 493.50Q37 508 57.50 516.50Q78 525 107 525L117 525L117 573L140 573L140 525L153 525Q182 525 202.50 516.50Q223 508 235.50 493.50Q248 479 254 459.50Q260 440 260 418L260 318L183 318M117 448L107 448Q91 448 84 439Q77 430 77 418L77 107Q77 95 84 86Q91 77 107 77L117 77L117 448Z"  horiz-adv-x="370" vert-adv-y="1000"  />

      
      <glyph glyph-name="unia3" unicode="&#xa3;" d="M231 469L231 403L154 403L154 165Q154 132 145.50 111Q137 90 121 77L231 77L231 0L0 0L0 77L29 77Q49 78 63 92Q77 106 77 132L77 403L0 403L0 469L77 469L77 587Q77 609 83 628.50Q89 648 101.50 662.50Q114 677 134.50 685.50Q155 694 184 694L222 694L222 617L184 617Q167 617 160.50 608Q154 599 154 587L154 469L231 469Z"  horiz-adv-x="341" vert-adv-y="1000"  />

      
      <glyph glyph-name="uni2030" unicode="&#x2030;" d="M423 694L66 0L0 0L357 694L423 694M97 434Q76 434 57 442.50Q38 451 23.50 467.50Q9 484 0 508.50Q-9 533-9 566Q-9 598 0 622.50Q9 647 23.50 663.50Q38 680 57 688.50Q76 697 97 697Q118 697 137.50 688.50Q157 680 171.50 663.50Q186 647 195 622.50Q204 598 204 566Q204 533 195 508.50Q186 484 171.50 467.50Q157 451 137.50 442.50Q118 434 97 434M49 563Q49 517 63 497Q77 477 97 477Q117 477 131.50 497Q146 517 146 563L146 569Q146 614 131.50 634Q117 654 97 654Q77 654 63 634Q49 614 49 569L49 563M325 260Q346 260 365.50 251.50Q385 243 399.50 226.50Q414 210 423 185.50Q432 161 432 128Q432 95 423 70.50Q414 46 399.50 29.50Q385 13 365.50 5Q346-3 325-3Q304-3 285 5Q266 13 251.50 29.50Q237 46 228 70.50Q219 95 219 128Q219 161 228 185.50Q237 210 251.50 226.50Q266 243 285 251.50Q304 260 325 260M374 131Q374 176 359.50 196.50Q345 217 325 217Q305 217 291 196.50Q277 176 277 131L277 125Q277 80 291 60Q305 40 325 40Q345 40 359.50 60Q374 80 374 125L374 131M575 260Q596 260 615 251.50Q634 243 648.50 226.50Q663 210 672 185.50Q681 161 681 128Q681 95 672 70.50Q663 46 648.50 29.50Q634 13 615 5Q596-3 575-3Q554-3 534.50 5Q515 13 500.50 29.50Q486 46 477 70.50Q468 95 468 128Q468 161 477 185.50Q486 210 500.50 226.50Q515 243 534.50 251.50Q554 260 575 260M623 131Q623 176 609 196.50Q595 217 575 217Q555 217 540.50 196.50Q526 176 526 131L526 125Q526 80 540.50 60Q555 40 575 40Q595 40 609 60Q623 80 623 125L623 131Z"  horiz-adv-x="791" vert-adv-y="1000"  />

      
      <glyph glyph-name="unid8" unicode="&#xd8;" d="M249 668Q262 653 267.50 634Q273 615 273 593L273 101Q273 79 267 59.50Q261 40 248.50 25.50Q236 11 215.50 2.50Q195-6 166-6L107-6Q79-6 61 1L45-56L4-45L24 26Q11 41 5.50 60Q0 79 0 101L0 593Q0 615 6 634.50Q12 654 24.50 668.50Q37 683 57.50 691.50Q78 700 107 700L166 700Q180 700 191 698Q202 696 212 693L228 750L269 739L249 668M107 623Q90 623 83.50 614Q77 605 77 593L77 177L103 308L189 613Q181 623 166 623L107 623M166 71Q182 71 189 80Q196 89 196 101L196 510L174 400L83 80Q92 71 107 71L166 71Z"  horiz-adv-x="359" vert-adv-y="1000"  />

      
      <glyph glyph-name="unif8" unicode="&#xf8;" d="M249 668Q262 653 267.50 634Q273 615 273 593L273 101Q273 79 267 59.50Q261 40 248.50 25.50Q236 11 215.50 2.50Q195-6 166-6L107-6Q79-6 61 1L45-56L4-45L24 26Q11 41 5.50 60Q0 79 0 101L0 593Q0 615 6 634.50Q12 654 24.50 668.50Q37 683 57.50 691.50Q78 700 107 700L166 700Q180 700 191 698Q202 696 212 693L228 750L269 739L249 668M107 623Q90 623 83.50 614Q77 605 77 593L77 177L103 308L189 613Q181 623 166 623L107 623M166 71Q182 71 189 80Q196 89 196 101L196 510L174 400L83 80Q92 71 107 71L166 71Z"  horiz-adv-x="405" vert-adv-y="1000"  />

      
      <glyph glyph-name="uniae" unicode="&#xae;" d="M497 694Q526 694 546.50 685.50Q567 677 579.50 662.50Q592 648 598 628.50Q604 609 604 587L604 107Q604 85 598 65.50Q592 46 579.50 31.50Q567 17 546.50 8.50Q526 0 497 0L107 0Q78 0 57.50 8.50Q37 17 24.50 31.50Q12 46 6 65.50Q0 85 0 107L0 587Q0 609 6 628.50Q12 648 24.50 662.50Q37 677 57.50 685.50Q78 694 107 694L497 694M497 77Q514 77 520.50 86Q527 95 527 107L527 587Q527 599 520.50 608Q514 617 497 617L107 617Q91 617 84 608Q77 599 77 587L77 107Q77 95 84 86Q91 77 107 77L497 77M429 396Q429 354 412 330.50Q395 307 368 296L446 151L360 151L306 289L252 289L252 151L175 151L175 543L321 543Q350 543 370.50 534.50Q391 526 404 511.50Q417 497 423 477.50Q429 458 429 436L429 396M351 436Q351 448 344.50 457Q338 466 321 466L252 466L252 366L321 366Q334 366 342.50 372.50Q351 379 351 396L351 436Z"  horiz-adv-x="714" vert-adv-y="1000"  />

      
      <glyph glyph-name="unia9" unicode="&#xa9;" d="M504 694Q533 694 553.50 685.50Q574 677 586.50 662.50Q599 648 605 628.50Q611 609 611 587L611 107Q611 85 605 65.50Q599 46 586.50 31.50Q574 17 553.50 8.50Q533 0 504 0L107 0Q78 0 57.50 8.50Q37 17 24.50 31.50Q12 46 6 65.50Q0 85 0 107L0 587Q0 609 6 628.50Q12 648 24.50 662.50Q37 677 57.50 685.50Q78 694 107 694L504 694M534 587Q534 599 527.50 608Q521 617 504 617L107 617Q91 617 84 608Q77 599 77 587L77 107Q77 95 84 86Q91 77 107 77L504 77Q521 77 527.50 86Q534 95 534 107L534 587M329 543Q358 543 378.50 534.50Q399 526 411.50 511.50Q424 497 430 477.50Q436 458 436 436L436 398L359 398L359 436Q359 448 352 457Q345 466 329 466L283 466Q267 466 260 457Q253 448 253 436L253 258Q253 246 260 237Q267 228 283 228L329 228Q345 228 352 237Q359 246 359 258L359 297L436 297L436 258Q436 236 430 216.50Q424 197 411.50 182.50Q399 168 378.50 159.50Q358 151 329 151L283 151Q254 151 233.50 159.50Q213 168 200.50 182.50Q188 197 182 216.50Q176 236 176 258L176 436Q176 458 182 477.50Q188 497 200.50 511.50Q213 526 233.50 534.50Q254 543 283 543L329 543Z"  horiz-adv-x="721" vert-adv-y="1000"  />

      
      <glyph glyph-name="uni2122" unicode="&#x2122;" d="M0 750L0 798L168 798L168 750L108 750L108 553L60 553L60 750L0 750M388 798L475 798L475 553L428 553L428 615L434 751L425 751L376 557L312 557L264 751L255 751L261 615L261 553L214 553L214 798L301 798L344 604L388 798Z"  horiz-adv-x="585" vert-adv-y="1000"  />

      
      <glyph glyph-name="uni2022" unicode="&#x2022;" d="M64 500Q90 500 108.50 481Q127 462 127 436Q127 410 108.50 391.50Q90 373 64 373Q38 373 19 391.50Q0 410 0 436Q0 462 19 481Q38 500 64 500Z"  horiz-adv-x="237" vert-adv-y="1000"  />

      
      <glyph glyph-name="uni2026" unicode="&#x2026;" d="M0 0L0 97L97 97L97 0L0 0M182 0L182 97L279 97L279 0L182 0M364 97L461 97L461 0L364 0L364 97Z"  horiz-adv-x="571" vert-adv-y="1000"  />

      
      <glyph glyph-name="unia8" unicode="&#xa8;" d="M162 718Q146 718 134.50 729Q123 740 123 756Q123 772 134.50 783.50Q146 795 162 795Q178 795 189 783.50Q200 772 200 756Q200 740 189 729Q178 718 162 718M39 718Q22 718 11 729Q0 740 0 756Q0 772 11 783.50Q22 795 39 795Q55 795 66 783.50Q77 772 77 756Q77 740 66 729Q55 718 39 718Z"  horiz-adv-x="310" vert-adv-y="1000"  />

      
      <glyph glyph-name="uni7b" unicode="&#x7b;" d="M121 537Q121 491 104.50 467.50Q88 444 60 434Q88 424 104.50 400.50Q121 377 121 331L121 5Q121-8 128-16.50Q135-25 151-25L198-25L198-72L151-72Q122-72 101.50-63.50Q81-55 68.50-40.50Q56-26 50-6.50Q44 13 44 35L44 341Q48 367 31.50 381.50Q15 396-6 396L-22 396L-22 473L-6 473Q38 473 44 528L44 659Q44 681 50 700.50Q56 720 68.50 734.50Q81 749 101.50 757.50Q122 766 151 766L198 766L198 719L151 719Q135 719 128 710.50Q121 702 121 689L121 537L121 537Z"  horiz-adv-x="308" vert-adv-y="1000"  />

      
      <glyph glyph-name="uni7d" unicode="&#x7d;" d="M45 537L45 689Q45 702 38 710.50Q31 719 15 719L-32 719L-32 766L15 766Q44 766 64.50 757.50Q85 749 97.50 734.50Q110 720 116 700.50Q122 681 122 659L122 528Q128 473 172 473L188 473L188 396L172 396Q161 396 151.50 392.50Q142 389 134.50 382Q127 375 123.50 364.50Q120 354 122 341L122 35Q122 13 116-6.50Q110-26 97.50-40.50Q85-55 64.50-63.50Q44-72 15-72L-32-72L-32-25L15-25Q31-25 38-16.50Q45-8 45 5L45 331Q45 377 61.50 400.50Q78 424 106 434Q78 444 61.50 467.50Q45 491 45 537Z"  horiz-adv-x="308" vert-adv-y="1000"  />

      
      <glyph glyph-name="uni2044" unicode="&#x2044;" d="M403 694L473 694L70 0L0 0L403 694L403 694Z"  horiz-adv-x="583" vert-adv-y="1000"  />

      
      <glyph glyph-name="uniaa" unicode="&#xaa;" d="M121 553L115 605L48 605L42 553L0 553L25 798L138 798L163 553L121 553M51 642L112 642L101 751L62 751L51 642Z"  horiz-adv-x="273" vert-adv-y="1000"  />

      
      <glyph glyph-name="uniba" unicode="&#xba;" d="M95 798Q131 798 146 779Q161 760 161 733L161 619Q161 592 146 572.50Q131 553 95 553L66 553Q30 553 15 572.50Q0 592 0 619L0 733Q0 760 15 779Q30 798 66 798L95 798M95 601Q105 601 109.50 606Q114 611 114 619L114 733Q114 740 109.50 745.50Q105 751 95 751L66 751Q55 751 51 745.50Q47 740 47 733L47 619Q47 611 51 606Q55 601 66 601L95 601Z"  horiz-adv-x="271" vert-adv-y="1000"  />

      
      <glyph glyph-name="unib2" unicode="&#xb2;" d="M109 626L157 626L157 554L0 554L0 601Q0 625 17 642.50Q34 660 54.50 674.50Q75 689 92 702.50Q109 716 109 731Q109 739 105 744.50Q101 750 90 750L67 750Q56 750 52 744.50Q48 739 48 731L48 718L0 718L0 731Q0 759 15.50 778.50Q31 798 67 798L90 798Q126 798 141.50 778.50Q157 759 157 731Q157 708 140 692Q123 676 103 662Q83 648 66 633.50Q49 619 48 601L109 601L109 626Z"  horiz-adv-x="267" vert-adv-y="1000"  />

      
      <glyph glyph-name="unib9" unicode="&#xb9;" d="M0 798L95 798L95 554L47 554L47 750L0 750L0 798L0 798Z"  horiz-adv-x="205" vert-adv-y="1000"  />

      
      <glyph glyph-name="unib3" unicode="&#xb3;" d="M111 708Q139 703 150.50 685Q162 667 162 643L162 621Q162 593 147 573.50Q132 554 96 554L67 554Q31 554 15.50 573.50Q0 593 0 621L0 626L48 626L48 621Q48 602 67 602L96 602Q114 602 114 621L114 652Q114 660 110 665.50Q106 671 96 671L54 671L54 709L95 750L0 750L0 798L162 798L162 750L111 708Z"  horiz-adv-x="272" vert-adv-y="1000"  />

      
      <glyph glyph-name="unibd" unicode="&#xbd;" d="M453 694L96 0L30 0L387 694L453 694M95 694L95 450L47 450L47 646L0 646L0 694L95 694M434 72L481 72L481 0L324 0L324 47Q324 71 341 88.50Q358 106 378.50 120.50Q399 135 416 148.50Q433 162 433 177Q433 196 414 196L391 196Q372 196 372 177L372 164L324 164L324 177Q324 205 339.50 224.50Q355 244 391 244L415 244Q451 244 466 224.50Q481 205 481 177Q481 154 464.50 138Q448 122 428 108Q408 94 391 79.50Q374 65 373 47L434 47L434 72Z"  horiz-adv-x="591" vert-adv-y="1000"  />

      
      <glyph glyph-name="unibc" unicode="&#xbc;" d="M387 694L453 694L96 0L30 0L387 694M509 106L509 58L481 58L481 0L434 0L434 58L328 58L328 106L363 244L481 244L481 106L509 106M377 106L434 106L434 196L399 196L377 106M0 694L95 694L95 450L47 450L47 646L0 646L0 694Z"  horiz-adv-x="619" vert-adv-y="1000"  />

      
      <glyph glyph-name="unibe" unicode="&#xbe;" d="M453 694L96 0L30 0L387 694L453 694M111 604Q139 599 150.50 581Q162 563 162 539L162 517Q162 489 147 469.50Q132 450 96 450L67 450Q31 450 15.50 469.50Q0 489 0 517L0 522L48 522L48 517Q48 498 67 498L96 498Q114 498 114 517L114 548Q114 556 110 561.50Q106 567 96 567L54 567L54 605L95 646L0 646L0 694L162 694L162 646L111 604M509 58L481 58L481 0L434 0L434 58L328 58L328 106L363 244L481 244L481 106L509 106L509 58M434 106L434 196L399 196L377 106L434 106Z"  horiz-adv-x="619" vert-adv-y="1000"  />

      
      <glyph glyph-name="uni5e" unicode="&#x5e;" d="M93 602L0 602L173 775L346 602L252 602L173 682L93 602L93 602Z"  horiz-adv-x="456" vert-adv-y="1000"  />

      
      </font>
</defs>
</svg>
